<svg width="326" height="25" viewBox="0 0 326 25" fill="none" xmlns="http://www.w3.org/2000/svg">
<path d="M0.674988 3.98999V20.1" stroke="#009FE3" stroke-width="1.35" stroke-miterlimit="10"/>
<path d="M12.675 7.975V16.115" stroke="#009FE3" stroke-width="1.35" stroke-miterlimit="10"/>
<path d="M24.675 8.725V15.365" stroke="#009FE3" stroke-width="1.35" stroke-miterlimit="10"/>
<path d="M36.675 2.745V21.345" stroke="#009FE3" stroke-width="1.35" stroke-miterlimit="10"/>
<path d="M48.675 10.22V13.87" stroke="#009FE3" stroke-width="1.35" stroke-miterlimit="10"/>
<path d="M60.675 4.49V19.6" stroke="#009FE3" stroke-width="1.35" stroke-miterlimit="10"/>
<path d="M72.675 7.975V16.115" stroke="#009FE3" stroke-width="1.35" stroke-miterlimit="10"/>
<path d="M84.675 3.74V20.35" stroke="#009FE3" stroke-width="1.35" stroke-miterlimit="10"/>
<path d="M96.675 5.235V18.855" stroke="#009FE3" stroke-width="1.35" stroke-miterlimit="10"/>
<path d="M108.675 6.23V17.86" stroke="#009FE3" stroke-width="1.35" stroke-miterlimit="10"/>
<path d="M120.675 2.745V21.345" stroke="#009FE3" stroke-width="1.35" stroke-miterlimit="10"/>
<path d="M132.675 7.725V16.365" stroke="#009FE3" stroke-width="1.35" stroke-miterlimit="10"/>
<path d="M144.675 9.72V14.37" stroke="#009FE3" stroke-width="1.35" stroke-miterlimit="10"/>
<path d="M156.675 5.235V18.855" stroke="#009FE3" stroke-width="1.35" stroke-miterlimit="10"/>
<path d="M168.675 2.245V21.845" stroke="#009FE3" stroke-width="1.35" stroke-miterlimit="10"/>
<path d="M180.675 6.23V17.86" stroke="#009FE3" stroke-width="1.35" stroke-miterlimit="10"/>
<path d="M192.675 8.725V15.365" stroke="#009FE3" stroke-width="1.35" stroke-miterlimit="10"/>
<path d="M204.675 6.73V17.36" stroke="#009FE3" stroke-width="1.35" stroke-miterlimit="10"/>
<path d="M216.675 5.235V18.855" stroke="#009FE3" stroke-width="1.35" stroke-miterlimit="10"/>
<path d="M228.675 5.235V18.855" stroke="#009FE3" stroke-width="1.35" stroke-miterlimit="10"/>
<path d="M240.675 9.97V14.12" stroke="#009FE3" stroke-width="1.35" stroke-miterlimit="10"/>
<path d="M252.675 0V24.09" stroke="#009FE3" stroke-width="1.35" stroke-miterlimit="10"/>
<path d="M264.675 8.725V15.365" stroke="#009FE3" stroke-width="1.35" stroke-miterlimit="10"/>
<path d="M276.675 6.73V17.36" stroke="#009FE3" stroke-width="1.35" stroke-miterlimit="10"/>
<path d="M288.675 3.24V20.85" stroke="#009FE3" stroke-width="1.35" stroke-miterlimit="10"/>
<path d="M300.675 10.22V13.87" stroke="#009FE3" stroke-width="1.35" stroke-miterlimit="10"/>
<path d="M312.675 3.99V20.1" stroke="#009FE3" stroke-width="1.35" stroke-miterlimit="10"/>
<path d="M324.675 7.975V16.115" stroke="#009FE3" stroke-width="1.35" stroke-miterlimit="10"/>
</svg>
