<svg width="220" height="220" viewBox="0 0 220 220" fill="none" xmlns="http://www.w3.org/2000/svg">
<rect x="148.727" y="21.207" width="62.0834" height="72.4307" rx="19.5688" transform="rotate(42.7275 148.727 21.207)" fill="url(#paint0_linear_2004_444)"/>
<foreignObject x="32.9693" y="28.7144" width="155.596" height="159.775"><div xmlns="http://www.w3.org/1999/xhtml" style="backdrop-filter:blur(9.78px);clip-path:url(#bgblur_0_2004_444_clip_path);height:100%;width:100%"></div></foreignObject><g data-figma-bg-blur-radius="19.5688">
<mask id="path-2-inside-1_2004_444" fill="white">
<path d="M120.644 51.6099C124.521 47.412 131.068 47.1524 135.266 51.0298L165.67 79.1128C169.868 82.9903 170.127 89.537 166.25 93.7349L106.952 157.932C104.407 160.687 101.161 162.699 97.5615 163.752L79.9014 168.92L52.5381 143.646L56.2891 125.63C57.0538 121.958 58.8018 118.563 61.3467 115.808L120.644 51.6099Z"/>
</mask>
<path d="M120.644 51.6099C124.521 47.412 131.068 47.1524 135.266 51.0298L165.67 79.1128C169.868 82.9903 170.127 89.537 166.25 93.7349L106.952 157.932C104.407 160.687 101.161 162.699 97.5615 163.752L79.9014 168.92L52.5381 143.646L56.2891 125.63C57.0538 121.958 58.8018 118.563 61.3467 115.808L120.644 51.6099Z" fill="#B9DDFF" fill-opacity="0.6"/>
<path d="M120.644 51.6099L119.97 50.9879L119.97 50.9879L120.644 51.6099ZM135.266 51.0298L135.888 50.3564V50.3564L135.266 51.0298ZM165.67 79.1128L166.292 78.4394L166.292 78.4394L165.67 79.1128ZM166.25 93.7349L166.923 94.3568V94.3568L166.25 93.7349ZM106.952 157.932L106.279 157.31L106.279 157.31L106.952 157.932ZM97.5615 163.752L97.3041 162.873L97.3041 162.873L97.5615 163.752ZM79.9014 168.92L79.2794 169.594L79.6607 169.946L80.1588 169.8L79.9014 168.92ZM52.5381 143.646L51.6407 143.459L51.5349 143.967L51.9161 144.319L52.5381 143.646ZM56.2891 125.63L55.3917 125.443L55.3916 125.444L56.2891 125.63ZM61.3467 115.808L62.0201 116.43L62.0201 116.43L61.3467 115.808ZM120.644 51.6099L121.317 52.2318C124.851 48.4059 130.818 48.1693 134.644 51.7032L135.266 51.0298L135.888 50.3564C131.318 46.1356 124.191 46.4181 119.97 50.9879L120.644 51.6099ZM135.266 51.0298L134.644 51.7032L165.048 79.7862L165.67 79.1128L166.292 78.4394L135.888 50.3564L135.266 51.0298ZM165.67 79.1128L165.048 79.7861C168.874 83.3201 169.111 89.2869 165.577 93.1129L166.25 93.7349L166.923 94.3568C171.144 89.7871 170.861 82.6604 166.292 78.4394L165.67 79.1128ZM166.25 93.7349L165.577 93.1129L106.279 157.31L106.952 157.932L107.626 158.554L166.923 94.3568L166.25 93.7349ZM106.952 157.932L106.279 157.31C103.847 159.943 100.744 161.866 97.3041 162.873L97.5615 163.752L97.8189 164.632C101.578 163.532 104.968 161.431 107.626 158.554L106.952 157.932ZM97.5615 163.752L97.3041 162.873L79.6439 168.041L79.9014 168.92L80.1588 169.8L97.819 164.632L97.5615 163.752ZM79.9014 168.92L80.5233 168.247L53.1601 142.973L52.5381 143.646L51.9161 144.319L79.2794 169.594L79.9014 168.92ZM52.5381 143.646L53.4355 143.833L57.1865 125.817L56.2891 125.63L55.3916 125.444L51.6407 143.459L52.5381 143.646ZM56.2891 125.63L57.1865 125.817C57.9173 122.308 59.5879 119.063 62.0201 116.43L61.3467 115.808L60.6733 115.186C58.0157 118.063 56.1902 121.609 55.3917 125.443L56.2891 125.63ZM61.3467 115.808L62.0201 116.43L121.317 52.2318L120.644 51.6099L119.97 50.9879L60.6733 115.186L61.3467 115.808Z" fill="url(#paint1_linear_2004_444)" mask="url(#path-2-inside-1_2004_444)"/>
</g>
<foreignObject x="84.2238" y="21.631" width="111.425" height="109.685"><div xmlns="http://www.w3.org/1999/xhtml" style="backdrop-filter:blur(19.57px);clip-path:url(#bgblur_1_2004_444_clip_path);height:100%;width:100%"></div></foreignObject><rect data-figma-bg-blur-radius="39.1376" x="-0.518137" y="0.0205614" width="40.6556" height="9.61391" rx="4.80695" transform="matrix(-0.734589 -0.678512 -0.678513 0.734589 157.764 86.3683)" fill="url(#paint2_linear_2004_444)" fill-opacity="0.9" stroke="url(#paint3_linear_2004_444)" stroke-width="0.733334"/>
<path d="M79.9016 168.92L52.5381 143.646L46.9156 170.644C46.1193 174.468 49.6849 177.761 53.4334 176.664L79.9016 168.92Z" fill="url(#paint4_linear_2004_444)"/>
<defs>
<clipPath id="bgblur_0_2004_444_clip_path" transform="translate(-32.9693 -28.7144)"><path d="M120.644 51.6099C124.521 47.412 131.068 47.1524 135.266 51.0298L165.67 79.1128C169.868 82.9903 170.127 89.537 166.25 93.7349L106.952 157.932C104.407 160.687 101.161 162.699 97.5615 163.752L79.9014 168.92L52.5381 143.646L56.2891 125.63C57.0538 121.958 58.8018 118.563 61.3467 115.808L120.644 51.6099Z"/>
</clipPath><clipPath id="bgblur_1_2004_444_clip_path" transform="translate(-84.2238 -21.631)"><rect x="-0.518137" y="0.0205614" width="40.6556" height="9.61391" rx="4.80695" transform="matrix(-0.734589 -0.678512 -0.678513 0.734589 157.764 86.3683)"/>
</clipPath><linearGradient id="paint0_linear_2004_444" x1="166.635" y1="37.0512" x2="215.646" y2="51.498" gradientUnits="userSpaceOnUse">
<stop stop-color="#7FC0FB"/>
<stop offset="1" stop-color="#4088F4"/>
</linearGradient>
<linearGradient id="paint1_linear_2004_444" x1="41.5606" y1="50.3779" x2="125.754" y2="163.87" gradientUnits="userSpaceOnUse">
<stop stop-color="white"/>
<stop offset="0.765625" stop-color="white" stop-opacity="0"/>
</linearGradient>
<linearGradient id="paint2_linear_2004_444" x1="42.1793" y1="5.76956" x2="-17.5607" y2="4.24808" gradientUnits="userSpaceOnUse">
<stop stop-color="#FCFDFE"/>
<stop offset="1" stop-color="#FCFDFE" stop-opacity="0"/>
</linearGradient>
<linearGradient id="paint3_linear_2004_444" x1="40.9353" y1="7.1163" x2="20.6945" y2="10.3472" gradientUnits="userSpaceOnUse">
<stop stop-color="white"/>
<stop offset="1" stop-color="white" stop-opacity="0"/>
</linearGradient>
<linearGradient id="paint4_linear_2004_444" x1="56.5487" y1="155.14" x2="66.9207" y2="181.905" gradientUnits="userSpaceOnUse">
<stop stop-color="#7FC0FB"/>
<stop offset="1" stop-color="#4088F4"/>
</linearGradient>
</defs>
</svg>
