<svg width="328" height="39" viewBox="0 0 328 39" fill="none" xmlns="http://www.w3.org/2000/svg">
<g clip-path="url(#clip0_76_1622)">
<path d="M185.238 19.4465L166.5 0.708176L147.762 19.4465L166.5 38.1848L185.238 19.4465Z" stroke="#009FE3" stroke-miterlimit="10"/>
<path d="M183.26 4.85C183.26 5.14667 183.172 5.43668 183.007 5.68336C182.842 5.93003 182.608 6.12229 182.334 6.23582C182.06 6.34935 181.758 6.37906 181.467 6.32118C181.176 6.2633 180.909 6.12044 180.699 5.91066C180.49 5.70088 180.347 5.43361 180.289 5.14264C180.231 4.85166 180.261 4.55006 180.374 4.27598C180.488 4.00189 180.68 3.76762 180.927 3.6028C181.173 3.43797 181.463 3.35 181.76 3.35C182.158 3.35 182.539 3.50804 182.821 3.78934C183.102 4.07064 183.26 4.45218 183.26 4.85Z" fill="#009FE3"/>
<path d="M183.26 33.72C183.26 34.0167 183.172 34.3067 183.007 34.5534C182.842 34.8 182.608 34.9923 182.334 35.1058C182.06 35.2194 181.758 35.2491 181.467 35.1912C181.176 35.1333 180.909 34.9904 180.699 34.7807C180.49 34.5709 180.347 34.3036 180.289 34.0126C180.231 33.7217 180.261 33.4201 180.374 33.146C180.488 32.8719 180.68 32.6376 180.927 32.4728C181.173 32.308 181.463 32.22 181.76 32.22C182.158 32.22 182.539 32.378 182.821 32.6593C183.102 32.9406 183.26 33.3222 183.26 33.72Z" fill="#009FE3"/>
<path d="M102.52 20.4C103.348 20.4 104.02 19.7284 104.02 18.9C104.02 18.0716 103.348 17.4 102.52 17.4C101.692 17.4 101.02 18.0716 101.02 18.9C101.02 19.7284 101.692 20.4 102.52 20.4Z" fill="#009FE3"/>
<path d="M97.58 18.9C97.582 19.1975 97.4954 19.4889 97.3314 19.7371C97.1673 19.9853 96.9331 20.1791 96.6586 20.2939C96.3842 20.4086 96.0817 20.4392 95.7898 20.3816C95.4979 20.3241 95.2297 20.181 95.0194 19.9706C94.809 19.7602 94.6659 19.4921 94.6084 19.2002C94.5508 18.9083 94.5813 18.6058 94.6961 18.3313C94.8109 18.0568 95.0047 17.8227 95.2529 17.6586C95.5011 17.4946 95.7925 17.408 96.09 17.41C96.4843 17.4126 96.8618 17.5704 97.1407 17.8493C97.4195 18.1282 97.5774 18.5056 97.58 18.9Z" fill="#009FE3"/>
<path d="M316.651 15.5876L322.181 21.1172L327.711 15.5876L322.181 10.058L316.651 15.5876Z" fill="#009FE3"/>
<path d="M0.708829 17.4169L6.2384 22.9465L11.768 17.4169L6.2384 11.8873L0.708829 17.4169Z" stroke="#009FE3" stroke-miterlimit="10"/>
<path d="M322.18 15.58H217.94" stroke="#009FE3" stroke-miterlimit="10"/>
<path d="M147.02 2.1V7.6" stroke="#009FE3" stroke-miterlimit="10"/>
<path d="M149.35 2.1V7.6" stroke="#009FE3" stroke-miterlimit="10"/>
<path d="M217.94 15.58L208.55 25H191.55V12.83H250.21" stroke="#009FE3" stroke-miterlimit="10"/>
<path d="M138.3 19.45H112.85L100.8 7.39H69.74L59.77 17.36H11.24" stroke="#009FE3" stroke-miterlimit="10"/>
</g>
<defs>
<clipPath id="clip0_76_1622">
<rect width="327.71" height="38.89" fill="white"/>
</clipPath>
</defs>
</svg>
