<svg width="470" height="386" viewBox="0 0 470 386" fill="none" xmlns="http://www.w3.org/2000/svg">
<g opacity="0.6">
<path d="M296.464 256.86H247.254L222.649 299.471L247.254 342.098H296.464L321.069 299.471L296.464 256.86Z" stroke="#28FFBF" stroke-width="2.29668" stroke-miterlimit="10"/>
<path opacity="0.3" d="M369.958 299.471H320.748L296.143 342.098L320.748 384.709H369.958L394.563 342.098L369.958 299.471Z" stroke="#28FFBF" stroke-width="2.29668" stroke-miterlimit="10"/>
<path opacity="0.7" d="M296.464 171.623H247.254L222.649 214.234L247.254 256.86H296.464L321.069 214.234L296.464 171.623Z" stroke="#28FFBF" stroke-width="2.29668" stroke-miterlimit="10"/>
<path opacity="0.5" d="M149.002 86.3857H99.7921L75.187 128.997L99.7921 171.623H149.002L173.607 128.997L149.002 86.3857Z" stroke="#28FFBF" stroke-width="2.29668" stroke-miterlimit="10"/>
<path d="M296.464 86.3857H247.254L222.649 128.997L247.254 171.623H296.464L321.069 128.997L296.464 86.3857Z" stroke="#28FFBF" stroke-width="2.29668" stroke-miterlimit="10"/>
<path opacity="0.7" d="M369.958 128.997H320.748L296.143 171.623L320.748 214.234H369.958L394.563 171.623L369.958 128.997Z" stroke="#28FFBF" stroke-width="2.29668" stroke-miterlimit="10"/>
<path opacity="0.3" d="M369.958 43.7747H320.748L296.143 86.3857L320.748 128.997H369.958L394.563 86.3857L369.958 43.7747Z" stroke="#28FFBF" stroke-width="2.29668" stroke-miterlimit="10"/>
<path opacity="0.12" d="M443.452 171.623H394.242L369.636 214.234L394.242 256.86H443.452L468.057 214.234L443.452 171.623Z" stroke="#28FFBF" stroke-width="2.29668" stroke-miterlimit="10"/>
<path opacity="0.12" d="M149.002 1.14832H99.7921L75.187 43.7747L99.7921 86.3857H149.002L173.607 43.7747L149.002 1.14832Z" stroke="#28FFBF" stroke-width="2.29668" stroke-miterlimit="10"/>
<path opacity="0.5" d="M222.404 214.234H173.194L148.589 256.86L173.194 299.471H222.404L247.009 256.86L222.404 214.234Z" stroke="#28FFBF" stroke-width="2.29668" stroke-miterlimit="10"/>
<path opacity="0.5" d="M147.609 254.533H98.3988L73.7937 297.144L98.3988 339.771H147.609L172.214 297.144L147.609 254.533Z" stroke="#28FFBF" stroke-width="2.29668" stroke-miterlimit="10"/>
<path d="M75.1411 128.997H25.931L1.32593 171.623L25.931 214.234H75.1411L99.7462 171.623L75.1411 128.997Z" stroke="#28FFBF" stroke-width="2.29668" stroke-miterlimit="10"/>
<path opacity="0.75" d="M222.404 128.997H173.194L148.589 171.623L173.194 214.234H222.404L247.009 171.623L222.404 128.997Z" stroke="#28FFBF" stroke-width="2.29668" stroke-miterlimit="10"/>
</g>
</svg>
