<?xml version="1.0" encoding="UTF-8"?>
<!DOCTYPE svg PUBLIC "-//W3C//DTD SVG 1.1//EN" "http://www.w3.org/Graphics/SVG/1.1/DTD/svg11.dtd">
<!-- Creator: CorelDRAW -->
<svg xmlns="http://www.w3.org/2000/svg" xml:space="preserve" width="210mm" height="297mm" version="1.1" style="shape-rendering:geometricPrecision; text-rendering:geometricPrecision; image-rendering:optimizeQuality; fill-rule:evenodd; clip-rule:evenodd"
viewBox="0 0 21000 29700"
 xmlns:xlink="http://www.w3.org/1999/xlink"
 xmlns:xodm="http://www.corel.com/coreldraw/odm/2003">
 <defs>
  <style type="text/css">
   <![CDATA[
    .fil1 {fill:black;fill-rule:nonzero}
    .fil0 {fill:#009FE3;fill-rule:nonzero}
   ]]>
  </style>
 </defs>
 <g id="Camada_x0020_1">
  <metadata id="CorelCorpID_0Corel-Layer"/>
  <g id="_2446439264560">
   <g>
    <path class="fil0" d="M6758.31 14332.89c0,496.69 -194.12,909.28 -582.34,1237.77 -388.25,328.5 -877.86,492.76 -1468.83,492.76l-2277.53 0 0 -2121.93 1056.25 0 0 1244.89 1221.28 0c292.34,0 532.85,-74.69 721.45,-223.99 188.61,-149.34 282.93,-345.02 282.93,-587.08 0,-242.02 -95.1,-440.85 -285.3,-596.49 -190.16,-155.6 -429.89,-233.39 -719.08,-233.39l-2277.53 0 669.59 -881.79 1607.94 0c600.42,0 1092.4,154.04 1475.91,462.12 383.51,308.08 575.26,710.45 575.26,1207.13z"/>
    <path class="fil1" d="M13208.94 16072.83l-1155.27 0 -447.97 -1796.55 -952.51 1532.52c-125.74,198.06 -298.63,297.04 -518.69,297.04 -113.14,0 -223.17,-28.26 -330.05,-84.87 -106.88,-56.57 -187.05,-127.29 -240.51,-212.17l-957.22 -1532.52 -443.22 1796.55 -1159.97 0 881.74 -3017.79c34.61,-122.63 107.7,-225.58 219.29,-308.86 111.58,-83.32 239.69,-124.96 384.28,-124.96 223.21,0 416.56,132.04 580.01,396.06l1037.38 1692.82 1042.09 -1692.82c160.3,-264.02 352.1,-396.06 575.26,-396.06 147.75,0 276.63,41.64 386.66,124.96 110.03,83.28 183.9,186.23 221.61,308.86l877.09 3017.79z"/>
    <path class="fil1" d="M18556.13 16063.42l-1532.48 0 -1027.98 -853.48 -1452.31 0 0 853.48 -1056.24 0 0 -1735.27 2932.96 0c179.16,0 326.9,-26.71 443.23,-80.13 147.74,-69.17 221.61,-171.34 221.61,-306.53 0,-264.03 -221.61,-396.06 -664.84,-396.06l-2932.96 0 688.44 -881.79 2145.5 0c531.25,0 961.91,100.62 1292,301.78 370.95,229.51 556.41,556.4 556.41,980.82 0,238.91 -74.65,455 -223.99,648.35 -149.34,193.31 -356.02,341.87 -620.05,445.6l1230.7 1023.23z"/>
   </g>
   <path class="fil1" d="M2575.93 17073.93l-145.97 0 0 -471.92 145.97 0 0 471.92zm633.64 -60.84c0,42.76 -19.41,64.12 -58.25,64.12 -27.91,0 -54.54,-10.49 -79.82,-31.42l-276.28 -231.06 0 259.2 -146.62 0 0 -411.04c0,-17.47 5.56,-31.89 16.69,-43.23 11.09,-11.35 26.93,-17 47.42,-17 26.63,0 51.31,9.36 74.01,28.13l276.23 231.06 0 -259.84 146.62 0 0 411.08zm551.15 -411.08l-94.24 122.41 -271.67 0 0 49.71 342.99 0 -94.23 121.77 -248.76 0 0 178.03 -146.62 0 0 -471.92 512.53 0zm732.49 231.71c0,68.95 -26.92,126.21 -80.82,171.82 -53.89,45.6 -121.85,68.39 -203.92,68.39l-142.09 0c-82.46,0 -150.63,-22.79 -204.52,-68.39 -53.9,-45.61 -80.86,-102.87 -80.86,-171.82 0,-68.95 26.75,-124.79 80.21,-167.59 53.42,-42.76 121.85,-64.12 205.17,-64.12l142.09 0c83.36,0 151.67,21.36 204.87,64.12 53.25,42.8 79.87,98.64 79.87,167.59zm-284.74 -109.3l-142.09 0c-40.56,0 -73.96,10.79 -100.15,32.36 -26.14,21.62 -39.26,49.24 -39.26,82.81 0,33.61 13.12,60.79 39.26,81.5 26.19,20.76 59.59,31.11 100.15,31.11l142.09 0c40.6,0 73.96,-10.35 100.15,-31.11 26.19,-20.71 39.27,-47.89 39.27,-81.5 0,-33.57 -13.17,-61.19 -39.57,-82.81 -26.41,-21.57 -59.68,-32.36 -99.85,-32.36zm1027.07 349.51l-212.76 0 -142.7 -118.45 -201.59 0 0 118.45 -146.62 0 0 -240.86 407.16 0c24.85,0 45.34,-3.71 61.48,-11.13 20.54,-9.62 30.77,-23.78 30.77,-42.55 0,-36.67 -30.77,-54.97 -92.25,-54.97l-407.16 0 95.58 -122.41 297.81 0c73.74,0 133.55,13.94 179.37,41.9 51.48,31.84 77.24,77.23 77.24,136.13 0,33.18 -10.4,63.17 -31.11,90.01 -20.71,26.84 -49.41,47.46 -86.09,61.83l170.87 142.05zm892.19 1.34l-160.34 0 -62.22 -249.41 -132.21 212.73c-17.43,27.48 -41.46,41.25 -72.01,41.25 -15.71,0 -30.98,-3.93 -45.78,-11.78 -14.85,-7.85 -25.98,-17.69 -33.4,-29.47l-132.94 -212.73 -61.53 249.41 -160.99 0 122.37 -418.94c4.83,-17.04 14.97,-31.32 30.46,-42.89 15.49,-11.56 33.27,-17.34 53.33,-17.34 31.03,0 57.87,18.33 80.56,54.97l143.99 235.03 144.68 -235.03c22.26,-36.64 48.89,-54.97 79.87,-54.97 20.49,0 38.4,5.78 53.68,17.34 15.27,11.57 25.5,25.85 30.76,42.89l121.72 418.94zm247.46 -1.34l88.37 -122.37 197.02 0 -122.41 -169.58 -212.73 291.95 -181.31 0 302.43 -419.58c9.58,-13.94 22.87,-26.15 39.91,-36.64 18.77,-11.34 36.85,-17.04 54.33,-17.04 17.91,0 35.98,5.7 54.32,17.04 16.14,10.01 29.26,22.27 39.27,36.64l295.27 419.58 -554.47 0zm977.93 -471.92l-94.89 122.41 -141.39 0 0 349.51 -146.62 0 0 -349.51 -194.48 0 94.33 -122.41 483.05 0zm187.22 471.92l-145.97 0 0 -471.92 145.97 0 0 471.92zm653.28 -121.73l-94.28 121.73 -236.98 0c-82.02,0 -149.98,-22.79 -203.88,-68.39 -53.89,-45.61 -80.81,-102.87 -80.81,-171.82 0,-68.95 26.58,-124.79 79.82,-167.59 53.25,-42.76 121.55,-64.12 204.87,-64.12l331.26 0 -94.28 122.41 -236.98 0c-40.13,0 -73.31,10.79 -99.46,32.36 -26.19,21.62 -39.3,49.24 -39.3,82.81 0,33.18 13.11,60.23 39.3,81.2 26.15,20.93 59.33,31.41 99.46,31.41l331.26 0zm227.13 121.73l88.37 -122.37 197.02 0 -122.41 -169.58 -212.73 291.95 -181.31 0 302.43 -419.58c9.58,-13.94 22.87,-26.15 39.91,-36.64 18.77,-11.34 36.85,-17.04 54.33,-17.04 17.9,0 35.98,5.7 54.32,17.04 16.14,10.01 29.26,22.27 39.27,36.64l295.22 419.58 -554.42 0zm1349.1 -121.73l-94.28 121.73 -418.29 0 0 -471.92 512.57 0 -94.28 122.41 -271.67 0 0 49.71 343.03 0 -94.28 121.77 -248.75 0 0 56.3 365.95 0zm1146.16 123.07l-160.38 0 -62.23 -249.41 -132.2 212.73c-17.44,27.48 -41.47,41.25 -72.02,41.25 -15.71,0 -30.98,-3.93 -45.78,-11.78 -14.84,-7.85 -25.98,-17.69 -33.4,-29.47l-132.9 -212.73 -61.53 249.41 -160.98 0 122.37 -418.94c4.83,-17.04 14.97,-31.32 30.46,-42.89 15.49,-11.56 33.27,-17.34 53.33,-17.34 30.98,0 57.82,18.33 80.52,54.97l143.98 235.03 144.68 -235.03c22.27,-36.64 48.89,-54.97 79.87,-54.97 20.5,0 38.4,5.78 53.68,17.34 15.27,11.57 25.5,25.85 30.76,42.89l121.77 418.94zm752.78 -241.55c0,68.95 -26.93,126.21 -80.82,171.82 -53.9,45.6 -121.85,68.39 -203.92,68.39l-142.05 0c-82.46,0 -150.63,-22.79 -204.53,-68.39 -53.89,-45.61 -80.86,-102.87 -80.86,-171.82 0,-68.95 26.76,-124.79 80.22,-167.59 53.42,-42.76 121.85,-64.12 205.17,-64.12l142.05 0c83.36,0 151.66,21.36 204.87,64.12 53.24,42.8 79.87,98.64 79.87,167.59zm-284.74 -109.3l-142.05 0c-40.56,0 -73.96,10.79 -100.15,32.36 -26.15,21.62 -39.26,49.24 -39.26,82.81 0,33.61 13.11,60.79 39.26,81.5 26.19,20.76 59.59,31.11 100.15,31.11l142.05 0c40.6,0 73.95,-10.35 100.14,-31.11 26.2,-20.71 39.27,-47.89 39.27,-81.5 0,-33.57 -13.16,-61.19 -39.57,-82.81 -26.4,-21.57 -59.67,-32.36 -99.84,-32.36zm903.36 288.67c0,42.76 -19.42,64.12 -58.25,64.12 -27.92,0 -54.58,-10.49 -79.87,-31.42l-276.24 -231.06 0 259.2 -146.62 0 0 -411.04c0,-17.47 5.57,-31.89 16.7,-43.23 11.09,-11.35 26.93,-17 47.42,-17 26.62,0 51.31,9.36 74,28.13l276.2 231.06 0 -259.84 146.66 0 0 411.08zm221.27 60.84l-145.97 0 0 -471.92 145.97 0 0 471.92zm606.11 -471.92l-94.88 122.41 -141.4 0 0 349.51 -146.62 0 0 -349.51 -194.43 0 94.28 -122.41 483.05 0zm638.26 231.71c0,68.95 -26.93,126.21 -80.82,171.82 -53.89,45.6 -121.85,68.39 -203.96,68.39l-142.05 0c-82.46,0 -150.63,-22.79 -204.52,-68.39 -53.9,-45.61 -80.87,-102.87 -80.87,-171.82 0,-68.95 26.76,-124.79 80.22,-167.59 53.42,-42.76 121.85,-64.12 205.17,-64.12l142.05 0c83.4,0 151.71,21.36 204.91,64.12 53.25,42.8 79.87,98.64 79.87,167.59zm-284.78 -109.3l-142.05 0c-40.56,0 -73.96,10.79 -100.15,32.36 -26.15,21.62 -39.26,49.24 -39.26,82.81 0,33.61 13.11,60.79 39.26,81.5 26.19,20.76 59.59,31.11 100.15,31.11l142.05 0c40.6,0 74,-10.35 100.19,-31.11 26.19,-20.71 39.26,-47.89 39.26,-81.5 0,-33.57 -13.16,-61.19 -39.56,-82.81 -26.41,-21.57 -59.72,-32.36 -99.89,-32.36zm1027.11 349.51l-212.76 0 -142.7 -118.45 -201.59 0 0 118.45 -146.62 0 0 -240.86 407.15 0c24.86,0 45.35,-3.71 61.49,-11.13 20.54,-9.62 30.77,-23.78 30.77,-42.55 0,-36.67 -30.77,-54.97 -92.26,-54.97l-407.15 0 95.58 -122.41 297.81 0c73.74,0 133.55,13.94 179.37,41.9 51.48,31.84 77.24,77.23 77.24,136.13 0,33.18 -10.4,63.17 -31.11,90.01 -20.72,26.84 -49.41,47.46 -86.09,61.83l170.87 142.05zm244.14 0l88.37 -122.37 197.06 0 -122.41 -169.58 -212.77 291.95 -181.31 0 302.43 -419.58c9.58,-13.94 22.87,-26.15 39.91,-36.64 18.77,-11.34 36.89,-17.04 54.37,-17.04 17.91,0 35.98,5.7 54.32,17.04 16.14,10.01 29.26,22.27 39.27,36.64l295.22 419.58 -554.46 0zm1430.9 1.34l-160.34 0 -62.22 -249.41 -132.21 212.73c-17.43,27.48 -41.46,41.25 -72.01,41.25 -15.71,0 -30.98,-3.93 -45.78,-11.78 -14.85,-7.85 -25.98,-17.69 -33.4,-29.47l-132.9 -212.73 -61.53 249.41 -160.99 0 122.37 -418.94c4.83,-17.04 14.97,-31.32 30.47,-42.89 15.49,-11.56 33.26,-17.34 53.33,-17.34 30.98,0 57.82,18.33 80.51,54.97l143.99 235.03 144.68 -235.03c22.26,-36.64 48.89,-54.97 79.87,-54.97 20.49,0 38.4,5.78 53.68,17.34 15.27,11.57 25.5,25.85 30.76,42.89l121.72 418.94zm543.38 -123.07l-94.28 121.73 -418.29 0 0 -471.92 512.57 0 -94.28 122.41 -271.63 0 0 49.71 343 0 -94.29 121.77 -248.71 0 0 56.3 365.91 0zm598.9 60.89c0,42.76 -19.41,64.12 -58.25,64.12 -27.91,0 -54.54,-10.49 -79.82,-31.42l-276.24 -231.06 0 259.2 -146.62 0 0 -411.04c0,-17.47 5.56,-31.89 16.7,-43.23 11.09,-11.35 26.92,-17 47.42,-17 26.62,0 51.3,9.36 74,28.13l276.19 231.06 0 -259.84 146.62 0 0 411.08zm604.87 -411.08l-94.89 122.41 -141.4 0 0 349.51 -146.66 0 0 -349.51 -194.43 0 94.28 -122.41 483.1 0zm638.21 231.71c0,68.95 -26.92,126.21 -80.82,171.82 -53.89,45.6 -121.85,68.39 -203.92,68.39l-142.05 0c-82.45,0 -150.63,-22.79 -204.52,-68.39 -53.89,-45.61 -80.86,-102.87 -80.86,-171.82 0,-68.95 26.75,-124.79 80.21,-167.59 53.42,-42.76 121.85,-64.12 205.17,-64.12l142.05 0c83.36,0 151.67,21.36 204.87,64.12 53.25,42.8 79.87,98.64 79.87,167.59zm-284.74 -109.3l-142.05 0c-40.56,0 -73.95,10.79 -100.14,32.36 -26.15,21.62 -39.27,49.24 -39.27,82.81 0,33.61 13.12,60.79 39.27,81.5 26.19,20.76 59.58,31.11 100.14,31.11l142.05 0c40.6,0 73.96,-10.35 100.15,-31.11 26.19,-20.71 39.26,-47.89 39.26,-81.5 0,-33.57 -13.16,-61.19 -39.56,-82.81 -26.41,-21.57 -59.68,-32.36 -99.85,-32.36z"/>
  </g>
 </g>
</svg>
