<svg width="844" height="577" viewBox="0 0 844 577" fill="none" xmlns="http://www.w3.org/2000/svg">
<path d="M795.411 414.806C827.177 334.984 827.177 242.03 795.411 162.208" stroke="#009FE3" stroke-width="1.33862" stroke-miterlimit="10"/>
<path d="M627.521 568.065C867.108 474.214 867.108 102.786 627.521 8.93535" stroke="#009FE3" stroke-width="1.33862" stroke-miterlimit="10"/>
<path d="M788.531 353.792C797.406 310.942 797.406 266.072 788.531 223.222" stroke="#009FE3" stroke-width="1.33862" stroke-miterlimit="10"/>
<path d="M740.876 417.764C781.235 338.411 781.235 238.603 740.876 159.249" stroke="#009FE3" stroke-width="1.33862" stroke-miterlimit="10"/>
<path d="M670.009 471.202C772.802 378.476 772.802 198.551 670.009 105.811" stroke="#009FE3" stroke-width="1.33862" stroke-miterlimit="10"/>
<path d="M593.574 489.956C766.216 422.329 766.216 154.685 593.574 87.0574" stroke="#009FE3" stroke-width="1.33862" stroke-miterlimit="10"/>
<path d="M674.011 515.149C819.546 409.719 819.546 167.294 674.011 61.8645" stroke="#009FE3" stroke-width="1.33862" stroke-miterlimit="10"/>
<path d="M638.739 508.817C799.239 417.282 799.239 159.718 638.739 68.1961" stroke="#009FE3" stroke-width="1.33862" stroke-miterlimit="10"/>
<path d="M681.695 441.471C752.856 356.669 752.856 220.331 681.695 135.529" stroke="#009FE3" stroke-width="1.33862" stroke-miterlimit="10"/>
<path d="M684.667 394.044C719.819 329.977 719.819 247.023 684.667 182.956" stroke="#009FE3" stroke-width="1.33862" stroke-miterlimit="10"/>
<path d="M629.114 425.635C706.272 356.027 706.272 220.973 629.114 151.365" stroke="#009FE3" stroke-width="1.33862" stroke-miterlimit="10"/>
<path d="M691.815 343.698C701.4 307.823 701.4 269.177 691.815 233.315" stroke="#009FE3" stroke-width="1.33862" stroke-miterlimit="10"/>
<path d="M563.08 449.195C712.256 402.758 712.256 174.242 563.08 127.805" stroke="#009FE3" stroke-width="1.33862" stroke-miterlimit="10"/>
<path d="M639.89 346.924C654.588 310.005 654.588 266.995 639.89 230.076" stroke="#009FE3" stroke-width="1.33862" stroke-miterlimit="10"/>
<path d="M588.219 380.082C639.743 333.592 639.743 243.409 588.219 196.918" stroke="#009FE3" stroke-width="1.33862" stroke-miterlimit="10"/>
<path d="M599.946 313.285C603.774 297.101 603.774 279.913 599.946 263.729" stroke="#009FE3" stroke-width="1.33862" stroke-miterlimit="10"/>
<path d="M626.37 393.294C675.122 335.198 675.122 241.802 626.37 183.706" stroke="#009FE3" stroke-width="1.33862" stroke-miterlimit="10"/>
<path d="M613.01 370.752C647.52 323.538 647.52 253.462 613.01 206.248" stroke="#009FE3" stroke-width="1.33862" stroke-miterlimit="10"/>
<path d="M580.04 370.979C626.437 329.121 626.437 247.906 580.04 206.048" stroke="#009FE3" stroke-width="1.33862" stroke-miterlimit="10"/>
<path d="M506.014 373.282C619.048 373.282 619.048 203.718 506.014 203.732" stroke="#009FE3" stroke-width="1.33862" stroke-miterlimit="10"/>
<path d="M573.24 317.836C580.616 299.296 580.616 277.704 573.24 259.164" stroke="#009FE3" stroke-width="1.33862" stroke-miterlimit="10"/>
<path d="M554.927 326.095C570.696 304.517 570.696 272.483 554.927 250.905" stroke="#009FE3" stroke-width="1.33862" stroke-miterlimit="10"/>
<path d="M541.863 296.793C542.987 291.358 542.987 285.669 541.863 280.234" stroke="#009FE3" stroke-width="1.33862" stroke-miterlimit="10"/>
<path d="M528.704 332.4C563.414 315.815 563.414 261.185 528.704 244.6" stroke="#009FE3" stroke-width="1.33862" stroke-miterlimit="10"/>
<path d="M519.641 309.563C534.353 300.447 534.353 276.566 519.641 267.45" stroke="#009FE3" stroke-width="1.33862" stroke-miterlimit="10"/>
<path d="M517.219 294.664C519.146 290.876 519.146 286.124 517.219 282.336" stroke="#009FE3" stroke-width="1.33862" stroke-miterlimit="10"/>
<path d="M692.364 576.431C893.586 451.779 893.586 125.208 692.364 0.56903" stroke="#009FE3" stroke-width="1.33862" stroke-miterlimit="10"/>
<path d="M794.126 447.067C843.628 349.722 843.628 227.278 794.126 129.934" stroke="#009FE3" stroke-width="1.33862" stroke-miterlimit="10"/>
<path d="M507.942 438.901C424.84 438.901 357.467 371.528 357.467 288.427C357.467 205.325 424.84 137.952 507.942 137.952" stroke="#009FE3" stroke-width="1.49926" stroke-miterlimit="10"/>
<path d="M507.942 417.148C436.848 417.148 379.22 359.521 379.22 288.426C379.22 217.332 436.848 159.705 507.942 159.705" stroke="#009FE3" stroke-width="4.01587" stroke-miterlimit="10"/>
<path d="M450.823 210.867C466.806 199.073 486.564 192.099 507.942 192.099C561.139 192.099 604.256 235.216 604.256 288.413C604.256 341.61 561.139 384.727 507.942 384.727C454.745 384.727 411.628 341.61 411.628 288.413" stroke="#009FE3" stroke-width="9.39713" stroke-miterlimit="10"/>
<path d="M507.942 474.147C405.377 474.147 322.221 390.992 322.221 288.426" stroke="#009FE3" stroke-width="8.03174" stroke-miterlimit="10"/>
<path d="M507.942 288.426L456.472 288.426L430.944 262.899L185.401 262.899L233.872 311.384L233.872 353.832L105.083 353.832" stroke="#009FE3" stroke-width="1.33862" stroke-miterlimit="10"/>
<path d="M507.942 282.43L460.488 282.43L434.96 256.902L234.033 256.902L209.657 232.526L143.903 232.526L143.903 295.28L12.0491 295.28" stroke="#009FE3" stroke-width="1.33862" stroke-miterlimit="10"/>
<path d="M507.942 242.726L298.514 242.726L259.694 203.906L64.9247 203.906" stroke="#009FE3" stroke-width="1.33862" stroke-miterlimit="10"/>
<path d="M141.226 332.641L120.478 311.892" stroke="#009FE3" stroke-width="1.33862" stroke-miterlimit="10"/>
<path d="M130.852 332.641L110.103 311.892" stroke="#009FE3" stroke-width="1.33862" stroke-miterlimit="10"/>
<path d="M120.478 332.641L99.7291 311.892" stroke="#009FE3" stroke-width="1.33862" stroke-miterlimit="10"/>
<path d="M0.946461 295.282L7.44922 288.78L13.952 295.282L7.44922 301.785L0.946461 295.282Z" fill="#E2E2E2" stroke="#009FE3" stroke-width="1.33862"/>
<path d="M94.6523 353.838L101.155 347.336L107.658 353.838L101.155 360.341L94.6523 353.838Z" fill="#E2E2E2" stroke="#009FE3" stroke-width="1.33862"/>
<path d="M58.4313 295.287L64.9341 288.784L71.4368 295.287L64.9341 301.789L58.4313 295.287Z" fill="#E2E2E2" stroke="#009FE3" stroke-width="1.33862"/>
<path d="M137.472 232.522L143.985 226.009L150.497 232.522L143.985 239.034L137.472 232.522Z" fill="#E2E2E2" stroke="#009FE3" stroke-width="1.33862"/>
<path d="M226.529 353.821L233.042 347.308L239.554 353.821L233.042 360.333L226.529 353.821Z" fill="#E2E2E2" stroke="#009FE3" stroke-width="1.33862"/>
<path d="M253.481 203.912L259.984 197.409L266.487 203.912L259.984 210.415L253.481 203.912Z" fill="#E2E2E2" stroke="#009FE3" stroke-width="1.33862"/>
<path d="M459.971 242.728L466.474 236.225L472.976 242.728L466.474 249.231L459.971 242.728Z" fill="#E2E2E2" stroke="#009FE3" stroke-width="1.33862"/>
<path d="M54.8273 203.923L61.3301 197.42L67.8328 203.923L61.3301 210.426L54.8273 203.923Z" fill="#E2E2E2" stroke="#009FE3" stroke-width="1.33862"/>
<path d="M209.563 448.031C201.8 448.031 195.508 454.323 195.508 462.086C195.508 469.849 201.8 476.142 209.563 476.142C217.326 476.142 223.619 469.849 223.619 462.086C223.619 454.323 217.326 448.031 209.563 448.031Z" stroke="#009FE3" stroke-width="1.33862" stroke-miterlimit="10"/>
<path d="M209.563 448.031L209.563 443.345" stroke="#009FE3" stroke-width="1.33862" stroke-miterlimit="10"/>
<path d="M209.563 481.161L209.563 476.476" stroke="#009FE3" stroke-width="1.33862" stroke-miterlimit="10"/>
<path d="M195.333 462.247L190.648 462.247" stroke="#009FE3" stroke-width="1.33862" stroke-miterlimit="10"/>
<path d="M228.464 462.247L223.779 462.247" stroke="#009FE3" stroke-width="1.33862" stroke-miterlimit="10"/>
<path d="M357.467 108.007C349.705 108.007 343.412 114.3 343.412 122.062C343.412 129.825 349.705 136.118 357.467 136.118C365.23 136.118 371.523 129.825 371.523 122.062C371.523 114.3 365.23 108.007 357.467 108.007Z" stroke="#009FE3" stroke-width="1.33862" stroke-miterlimit="10"/>
<path d="M357.467 108.007L357.467 103.322" stroke="#009FE3" stroke-width="1.33862" stroke-miterlimit="10"/>
<path d="M357.467 141.138L357.467 136.453" stroke="#009FE3" stroke-width="1.33862" stroke-miterlimit="10"/>
<path d="M343.251 122.223L338.566 122.223" stroke="#009FE3" stroke-width="1.33862" stroke-miterlimit="10"/>
<path d="M376.382 122.223L371.697 122.223" stroke="#009FE3" stroke-width="1.33862" stroke-miterlimit="10"/>
<path d="M182.616 159.704L164.625 141.727L182.616 123.736" stroke="#009FE3" stroke-width="1.33862" stroke-miterlimit="10"/>
<path d="M182.973 160.074C182.123 160.924 180.74 160.924 179.89 160.074C179.04 159.225 179.04 157.841 179.89 156.991C180.739 156.142 182.123 156.142 182.973 156.991C183.823 157.841 183.823 159.225 182.973 160.074Z" fill="#E2E2E2" stroke="#009FE3" stroke-width="1.33862"/>
<path d="M184.151 125.284C183.301 126.133 181.918 126.133 181.068 125.284C180.218 124.434 180.218 123.05 181.068 122.201C181.917 121.351 183.301 121.351 184.151 122.201C185.001 123.05 185.001 124.434 184.151 125.284Z" fill="#E2E2E2" stroke="#009FE3" stroke-width="1.33862"/>
<path d="M288.783 398.568L306.76 416.559L288.783 434.537" stroke="#009FE3" stroke-width="1.33862" stroke-miterlimit="10"/>
<path d="M291.509 401.294C290.659 402.144 289.275 402.144 288.426 401.294C287.576 400.445 287.576 399.061 288.426 398.211C289.275 397.362 290.659 397.362 291.509 398.211C292.358 399.061 292.358 400.445 291.509 401.294Z" fill="#E2E2E2" stroke="#009FE3" stroke-width="1.33862"/>
<path d="M290.317 436.072C289.467 436.921 288.084 436.921 287.234 436.072C286.385 435.222 286.385 433.838 287.234 432.989C288.084 432.139 289.467 432.139 290.317 432.989C291.167 433.838 291.167 435.222 290.317 436.072Z" fill="#E2E2E2" stroke="#009FE3" stroke-width="1.33862"/>
</svg>
