<?xml version="1.0" encoding="UTF-8"?>
<!DOCTYPE svg PUBLIC "-//W3C//DTD SVG 1.1//EN" "http://www.w3.org/Graphics/SVG/1.1/DTD/svg11.dtd">
<!-- Creator: CorelDRAW -->
<svg xmlns="http://www.w3.org/2000/svg" xml:space="preserve" width="210mm" height="297mm" version="1.1" style="shape-rendering:geometricPrecision; text-rendering:geometricPrecision; image-rendering:optimizeQuality; fill-rule:evenodd; clip-rule:evenodd"
viewBox="0 0 21000 29700"
 xmlns:xlink="http://www.w3.org/1999/xlink"
 xmlns:xodm="http://www.corel.com/coreldraw/odm/2003">
 <defs>
  <style type="text/css">
   <![CDATA[
    .fil0 {fill:black}
    .fil1 {fill:#009FE3}
    .fil25 {fill:black;fill-rule:nonzero}
    .fil2 {fill:black;fill-rule:nonzero}
    .fil24 {fill:#009FE3;fill-rule:nonzero}
    .fil3 {fill:url(#id0)}
    .fil4 {fill:url(#id1)}
    .fil15 {fill:url(#id2)}
    .fil12 {fill:url(#id3)}
    .fil23 {fill:url(#id4)}
    .fil11 {fill:url(#id5)}
    .fil13 {fill:url(#id6)}
    .fil20 {fill:url(#id7)}
    .fil21 {fill:url(#id8)}
    .fil10 {fill:url(#id9)}
    .fil22 {fill:url(#id10)}
    .fil9 {fill:url(#id11)}
    .fil14 {fill:url(#id12)}
    .fil17 {fill:url(#id13)}
    .fil8 {fill:url(#id14)}
    .fil6 {fill:url(#id15)}
    .fil18 {fill:url(#id16)}
    .fil7 {fill:url(#id17)}
    .fil19 {fill:url(#id18)}
    .fil16 {fill:url(#id19)}
    .fil5 {fill:url(#id20)}
   ]]>
  </style>
  <linearGradient id="id0" gradientUnits="userSpaceOnUse" x1="4576.8" y1="11844.97" x2="8118.33" y2="16445.66">
   <stop offset="0" style="stop-opacity:1; stop-color:#009FE3"/>
   <stop offset="0.878431" style="stop-opacity:1; stop-color:#0382C5"/>
   <stop offset="1" style="stop-opacity:1; stop-color:#0764A7"/>
  </linearGradient>
  <linearGradient id="id1" gradientUnits="userSpaceOnUse" xlink:href="#id0" x1="16161.3" y1="15615" x2="13064.91" y2="10703.65">
  </linearGradient>
  <radialGradient id="id2" gradientUnits="userSpaceOnUse" gradientTransform="matrix(0.999941 -0 -0 1.00006 1 -1)" cx="9617.35" cy="11322.82" r="74.41" fx="9617.35" fy="11322.82">
   <stop offset="0" style="stop-opacity:1; stop-color:white"/>
   <stop offset="0.631373" style="stop-opacity:1; stop-color:#F7F7F7"/>
   <stop offset="1" style="stop-opacity:1; stop-color:#F0F0F0"/>
  </radialGradient>
  <radialGradient id="id3" gradientUnits="userSpaceOnUse" gradientTransform="matrix(0.999941 -0 -0 1.00006 0 -1)" xlink:href="#id2" cx="8154.76" cy="12802.05" r="74.41" fx="8154.76" fy="12802.05">
  </radialGradient>
  <radialGradient id="id4" gradientUnits="userSpaceOnUse" gradientTransform="matrix(0.999941 -0 -0 1.00006 1 -1)" xlink:href="#id2" cx="9153.37" cy="14919.29" r="74.41" fx="9153.37" fy="14919.29">
  </radialGradient>
  <radialGradient id="id5" gradientUnits="userSpaceOnUse" gradientTransform="matrix(0.999941 -0 -0 1.00006 0 -1)" xlink:href="#id2" cx="8062.71" cy="13418.18" r="74.41" fx="8062.71" fy="13418.18">
  </radialGradient>
  <radialGradient id="id6" gradientUnits="userSpaceOnUse" gradientTransform="matrix(0.999941 -0 -0 1.00006 0 -1)" xlink:href="#id2" cx="8441.8" cy="12234.92" r="74.41" fx="8441.8" fy="12234.92">
  </radialGradient>
  <radialGradient id="id7" gradientUnits="userSpaceOnUse" gradientTransform="matrix(0.999941 -0 -0 1.00006 1 -1)" xlink:href="#id2" cx="8594.91" cy="13330.92" r="74.41" fx="8594.91" fy="13330.92">
  </radialGradient>
  <radialGradient id="id8" gradientUnits="userSpaceOnUse" gradientTransform="matrix(0.999913 -0 -0 1.00006 1 -1)" xlink:href="#id2" cx="8620.98" cy="13908.55" r="74.41" fx="8620.98" fy="13908.55">
  </radialGradient>
  <radialGradient id="id9" gradientUnits="userSpaceOnUse" gradientTransform="matrix(0.999941 -0 -0 1.00006 0 -1)" xlink:href="#id2" cx="8118.51" cy="14027.45" r="74.41" fx="8118.51" fy="14027.45">
  </radialGradient>
  <radialGradient id="id10" gradientUnits="userSpaceOnUse" gradientTransform="matrix(0.999941 -0 -0 1.00006 1 -1)" xlink:href="#id2" cx="8833.24" cy="14407.84" r="74.41" fx="8833.24" fy="14407.84">
  </radialGradient>
  <radialGradient id="id11" gradientUnits="userSpaceOnUse" gradientTransform="matrix(0.999941 -0 -0 1.00006 0 -1)" xlink:href="#id2" cx="8333.92" cy="14559.12" r="74.41" fx="8333.92" fy="14559.12">
  </radialGradient>
  <radialGradient id="id12" gradientUnits="userSpaceOnUse" gradientTransform="matrix(0.999941 -0 -0 1.00006 1 -1)" xlink:href="#id2" cx="8925.44" cy="11723.45" r="74.41" fx="8925.44" fy="11723.45">
  </radialGradient>
  <radialGradient id="id13" gradientUnits="userSpaceOnUse" gradientTransform="matrix(0.999941 -0 -0 1.00006 1 -1)" xlink:href="#id2" cx="9366.99" cy="11716" r="74.41" fx="9366.99" fy="11716">
  </radialGradient>
  <radialGradient id="id14" gradientUnits="userSpaceOnUse" gradientTransform="matrix(0.999941 -0 -0 1.00006 1 -1)" xlink:href="#id2" cx="8695.78" cy="14990.55" r="74.41" fx="8695.78" fy="14990.55">
  </radialGradient>
  <radialGradient id="id15" gradientUnits="userSpaceOnUse" gradientTransform="matrix(0.999941 -0 -0 1.00006 1 -1)" xlink:href="#id2" cx="9732.63" cy="15596.46" r="74.41" fx="9732.63" fy="15596.46">
  </radialGradient>
  <radialGradient id="id16" gradientUnits="userSpaceOnUse" gradientTransform="matrix(0.999941 -0 -0 1.00006 1 -1)" xlink:href="#id2" cx="8981.11" cy="12252.3" r="74.41" fx="8981.11" fy="12252.3">
  </radialGradient>
  <radialGradient id="id17" gradientUnits="userSpaceOnUse" gradientTransform="matrix(0.999913 -0 -0 1.00006 1 -1)" xlink:href="#id2" cx="9168.98" cy="15373.3" r="74.41" fx="9168.98" fy="15373.3">
  </radialGradient>
  <radialGradient id="id18" gradientUnits="userSpaceOnUse" gradientTransform="matrix(0.999941 -0 -0 1.00006 1 -1)" xlink:href="#id2" cx="8690.6" cy="12760.3" r="74.41" fx="8690.6" fy="12760.3">
  </radialGradient>
  <radialGradient id="id19" gradientUnits="userSpaceOnUse" gradientTransform="matrix(0.999941 -0 -0 1.00006 1 -1)" xlink:href="#id2" cx="10268.49" cy="11207.68" r="74.41" fx="10268.49" fy="11207.68">
  </radialGradient>
  <radialGradient id="id20" gradientUnits="userSpaceOnUse" gradientTransform="matrix(0.999941 -0 -0 1.00006 1 -1)" xlink:href="#id2" cx="10316.99" cy="15727.43" r="74.41" fx="10316.99" fy="15727.43">
  </radialGradient>
 </defs>
 <g id="Camada_x0020_1">
  <metadata id="CorelCorpID_0Corel-Layer"/>
  <g id="_2446381369520">
   <g>
    <g>
     <g>
      <circle class="fil0" cx="11759.97" cy="13467.28" r="1276.74"/>
      <circle class="fil1" cx="11759.97" cy="13467.28" r="830.76"/>
      <path class="fil2" d="M10990.51 11321.84c592.37,0 1128.78,240.15 1517,628.39 388.24,388.24 628.39,924.61 628.39,1517.02 0,592.44 -240.15,1128.83 -628.37,1517.09 -387.8,387.79 -924.14,627.68 -1517.02,627.7l0 0.71c-592.44,0 -1128.85,-240.15 -1517.08,-628.39 -388.24,-388.26 -628.4,-924.67 -628.4,-1517.11 0,-592.41 240.16,-1128.8 628.4,-1517.04 388.26,-388.22 924.64,-628.37 1517.08,-628.37zm1265.1 880.29c-323.71,-323.73 -771.03,-523.99 -1265.1,-523.99 -494.12,0 -941.44,200.26 -1265.19,523.97 -323.73,323.73 -523.99,771.05 -523.99,1265.14 0,494.12 200.26,941.46 523.99,1265.21 323.73,323.73 771.07,523.99 1265.19,523.99l0 0.72c493.59,0 940.95,-200.56 1265.12,-524.73 323.71,-323.75 523.97,-771.07 523.97,-1265.19 0,-494.09 -200.26,-941.39 -523.99,-1265.12z"/>
      <path class="fil2" d="M10318.26 10393.53c848.74,0 1617.22,344.08 2173.45,900.3 556.22,556.23 900.3,1324.67 900.3,2173.42 0,848.76 -344.08,1617.26 -900.3,2173.49 -556.23,556.24 -1324.67,900.32 -2173.45,900.32 -848.77,0 -1617.23,-344.08 -2173.48,-900.3 -556.23,-556.25 -900.3,-1324.71 -900.3,-2173.51 0,-848.73 344.07,-1617.21 900.3,-2173.44 556.25,-556.2 1324.71,-900.28 2173.48,-900.28zm1732.61 1341.14c-443.37,-443.36 -1055.96,-717.63 -1732.61,-717.63 -676.66,0 -1289.25,274.27 -1732.64,717.61 -443.36,443.37 -717.63,1055.96 -717.63,1732.6 0,676.67 274.27,1289.28 717.63,1732.67 443.39,443.36 1056,717.63 1732.64,717.63 676.67,0 1289.24,-274.27 1732.61,-717.65 443.36,-443.37 717.62,-1055.98 717.62,-1732.65 0,-676.62 -274.26,-1289.21 -717.62,-1732.58z"/>
      <path class="fil2" d="M10494.39 10019.43c976.07,0 1859.82,395.69 2499.49,1035.36 639.67,639.67 1035.36,1523.4 1035.36,2499.49 0,976.09 -395.69,1859.81 -1035.36,2499.48 -639.67,639.68 -1523.42,1035.36 -2499.49,1035.36 -976.09,0 -1859.83,-395.68 -2499.5,-1035.36 -639.68,-639.67 -1035.36,-1523.39 -1035.36,-2499.48 0,-976.09 395.68,-1859.82 1035.36,-2499.49 639.67,-639.67 1523.41,-1035.36 2499.5,-1035.36zm2184.6 1350.25c-559.05,-559.04 -1331.47,-904.86 -2184.6,-904.86 -853.15,0 -1625.56,345.82 -2184.61,904.86 -559.05,559.05 -904.87,1331.45 -904.87,2184.6 0,853.15 345.82,1625.54 904.87,2184.59 559.05,559.05 1331.46,904.87 2184.61,904.87 853.13,0 1625.55,-345.82 2184.6,-904.87 559.04,-559.05 904.87,-1331.44 904.87,-2184.59 0,-853.15 -345.83,-1625.55 -904.87,-2184.6z"/>
     </g>
     <g>
      <path class="fil3" d="M7809.72 10473.46c-1528.37,2661.77 -1494.3,4325.07 -588.37,5431.3l-454.7 373.1c393.54,-96.75 849.71,-25.77 1351.67,167.81 -131.56,-447.69 -140.9,-868.77 23.4,-1252.09l-471.27 377.69c-1412.03,-1406.57 -937.34,-3191.77 139.27,-5097.81z"/>
      <path class="fil4" d="M12814.39 16678.58c1770.29,-2507.39 1891.71,-4166.61 1093.07,-5352.62l487.55 -328.99c-400.86,59.57 -848.41,-53.71 -1330.09,-293.32 89.18,458.01 59.14,878.13 -140.24,1244.43l504.49 -332.02c1274.49,1532.29 635.14,3265.35 -614.78,5062.52z"/>
     </g>
    </g>
    <g>
     <circle class="fil5" cx="10316.99" cy="15727.43" r="177.45"/>
     <circle class="fil6" cx="9732.63" cy="15596.46" r="177.45"/>
     <circle class="fil7" cx="9168.98" cy="15373.3" r="177.45"/>
     <circle class="fil8" cx="8695.78" cy="14990.55" r="177.45"/>
     <circle class="fil9" cx="8333.92" cy="14559.12" r="177.45"/>
     <circle class="fil10" cx="8118.51" cy="14027.45" r="177.45"/>
     <circle class="fil11" cx="8062.71" cy="13418.18" r="177.45"/>
     <circle class="fil12" cx="8154.76" cy="12802.05" r="177.45"/>
     <circle class="fil13" cx="8441.8" cy="12234.92" r="177.45"/>
     <circle class="fil14" cx="8925.44" cy="11723.45" r="177.45"/>
     <circle class="fil15" cx="9617.35" cy="11322.82" r="177.45"/>
     <circle class="fil16" cx="10268.49" cy="11207.68" r="177.45"/>
     <circle class="fil17" cx="9366.99" cy="11716" r="177.45"/>
     <circle class="fil18" cx="8981.11" cy="12252.3" r="177.45"/>
     <circle class="fil19" cx="8690.6" cy="12760.3" r="177.45"/>
     <circle class="fil20" cx="8594.91" cy="13330.92" r="177.45"/>
     <circle class="fil21" cx="8620.98" cy="13908.55" r="177.45"/>
     <circle class="fil22" cx="8833.24" cy="14407.84" r="177.45"/>
     <circle class="fil23" cx="9153.37" cy="14919.29" r="177.45"/>
    </g>
   </g>
   <g>
    <path class="fil24" d="M8671.8 18342.15c0,242.2 -94.66,443.38 -283.96,603.57 -189.32,160.18 -428.07,240.28 -716.24,240.28l-1110.58 0 0 -1034.71 515.05 0 0 607.04 595.53 0c142.55,0 259.83,-36.42 351.8,-109.22 91.97,-72.82 137.96,-168.24 137.96,-286.28 0,-118.01 -46.37,-214.97 -139.12,-290.86 -92.72,-75.87 -209.63,-113.81 -350.64,-113.81l-1110.58 0 326.51 -429.98 784.07 0c292.78,0 532.68,75.11 719.69,225.34 187.01,150.23 280.51,346.43 280.51,588.63z"/>
    <path class="fil25" d="M11817.3 19190.59l-563.34 0 -218.45 -876.05 -464.46 747.3c-61.32,96.57 -145.63,144.84 -252.93,144.84 -55.17,0 -108.82,-13.78 -160.94,-41.38 -52.12,-27.59 -91.21,-62.07 -117.28,-103.46l-466.76 -747.3 -216.13 876.05 -565.63 0 429.96 -1471.56c16.87,-59.79 52.52,-110 106.93,-150.6 54.41,-40.63 116.88,-60.94 187.38,-60.94 108.85,0 203.13,64.39 282.83,193.13l505.86 825.46 508.15 -825.46c78.16,-128.74 171.69,-193.13 280.51,-193.13 72.04,0 134.89,20.31 188.54,60.94 53.65,40.6 89.68,90.81 108.07,150.6l427.69 1471.56z"/>
    <path class="fil25" d="M14424.72 19186l-747.28 0 -501.26 -416.18 -708.19 0 0 416.18 -515.05 0 0 -846.17 1430.19 0c87.36,0 159.4,-13.02 216.13,-39.07 72.04,-33.73 108.06,-83.55 108.06,-149.47 0,-128.75 -108.06,-193.13 -324.19,-193.13l-1430.19 0 335.7 -429.98 1046.2 0c259.05,0 469.06,49.06 630.02,147.15 180.88,111.92 271.31,271.32 271.31,478.27 0,116.51 -36.4,221.88 -109.22,316.16 -72.82,94.26 -173.6,166.7 -302.35,217.28l600.12 498.96z"/>
   </g>
   <path class="fil25" d="M6632.37 19678.75l-71.18 0 0 -230.12 71.18 0 0 230.12zm308.98 -29.67c0,20.85 -9.47,31.27 -28.41,31.27 -13.61,0 -26.59,-5.12 -38.92,-15.32l-134.72 -112.67 0 126.39 -71.5 0 0 -200.44c0,-8.52 2.71,-15.54 8.14,-21.08 5.41,-5.53 13.13,-8.29 23.13,-8.29 12.98,0 25.01,4.57 36.08,13.72l134.7 112.67 0 -126.7 71.5 0 0 200.45zm268.75 -200.45l-45.95 59.69 -132.47 0 0 24.24 167.25 0 -45.96 59.37 -121.29 0 0 86.82 -71.5 0 0 -230.12 249.92 0zm357.18 112.98c0,33.63 -13.13,61.55 -39.41,83.79 -26.28,22.24 -59.42,33.35 -99.43,33.35l-69.29 0c-40.21,0 -73.45,-11.11 -99.73,-33.35 -26.28,-22.24 -39.43,-50.16 -39.43,-83.79 0,-33.62 13.04,-60.85 39.11,-81.72 26.05,-20.85 59.42,-31.26 100.05,-31.26l69.29 0c40.65,0 73.95,10.41 99.9,31.26 25.96,20.87 38.94,48.1 38.94,81.72zm-138.84 -53.29l-69.29 0c-19.78,0 -36.06,5.26 -48.84,15.78 -12.75,10.54 -19.14,24.01 -19.14,40.38 0,16.39 6.39,29.64 19.14,39.74 12.78,10.12 29.06,15.17 48.84,15.17l69.29 0c19.79,0 36.06,-5.05 48.83,-15.17 12.77,-10.1 19.15,-23.35 19.15,-39.74 0,-16.37 -6.42,-29.84 -19.3,-40.38 -12.87,-10.52 -29.1,-15.78 -48.68,-15.78zm500.82 170.43l-103.75 0 -69.58 -57.76 -98.3 0 0 57.76 -71.5 0 0 -117.45 198.54 0c12.12,0 22.12,-1.81 29.99,-5.43 10.01,-4.69 15,-11.59 15,-20.75 0,-17.88 -15,-26.8 -44.99,-26.8l-198.54 0 46.61 -59.69 145.22 0c35.96,0 65.12,6.79 87.47,20.43 25.1,15.52 37.66,37.66 37.66,66.38 0,16.18 -5.07,30.8 -15.17,43.89 -10.1,13.09 -24.09,23.14 -41.98,30.15l83.32 69.27zm435.06 0.65l-78.19 0 -30.34 -121.62 -64.47 103.73c-8.5,13.41 -20.22,20.12 -35.11,20.12 -7.66,0 -15.11,-1.92 -22.33,-5.75 -7.24,-3.82 -12.66,-8.62 -16.28,-14.37l-64.83 -103.73 -30 121.62 -78.51 0 59.68 -204.28c2.35,-8.31 7.3,-15.28 14.85,-20.92 7.55,-5.64 16.22,-8.46 26.01,-8.46 15.12,0 28.21,8.95 39.28,26.81l70.21 114.61 70.55 -114.61c10.86,-17.86 23.84,-26.81 38.95,-26.81 9.99,0 18.72,2.82 26.17,8.46 7.45,5.64 12.44,12.61 15,20.92l59.36 204.28zm120.66 -0.65l43.1 -59.67 96.07 0 -59.7 -82.69 -103.72 142.36 -88.42 0 147.48 -204.6c4.67,-6.8 11.15,-12.75 19.46,-17.86 9.15,-5.54 17.97,-8.32 26.49,-8.32 8.73,0 17.55,2.78 26.49,8.32 7.87,4.88 14.26,10.85 19.15,17.86l143.98 204.6 -270.38 0zm476.87 -230.12l-46.27 59.69 -68.95 0 0 170.43 -71.5 0 0 -170.43 -94.83 0 46 -59.69 235.55 0zm91.29 230.12l-71.18 0 0 -230.12 71.18 0 0 230.12zm318.55 -59.36l-45.97 59.36 -115.55 0c-40,0 -73.14,-11.11 -99.42,-33.35 -26.28,-22.24 -39.41,-50.16 -39.41,-83.79 0,-33.62 12.96,-60.85 38.93,-81.72 25.96,-20.85 59.27,-31.26 99.9,-31.26l161.52 0 -45.97 59.69 -115.55 0c-19.57,0 -35.75,5.26 -48.5,15.78 -12.77,10.54 -19.17,24.01 -19.17,40.38 0,16.18 6.4,29.37 19.17,39.59 12.75,10.21 28.93,15.32 48.5,15.32l161.52 0zm110.76 59.36l43.09 -59.67 96.07 0 -59.69 -82.69 -103.73 142.36 -88.41 0 147.47 -204.6c4.67,-6.8 11.15,-12.75 19.47,-17.86 9.15,-5.54 17.96,-8.32 26.49,-8.32 8.73,0 17.54,2.78 26.49,8.32 7.86,4.88 14.26,10.85 19.14,17.86l143.96 204.6 -270.35 0zm657.85 -59.36l-45.97 59.36 -203.97 0 0 -230.12 249.94 0 -45.97 59.69 -132.47 0 0 24.24 167.27 0 -45.97 59.37 -121.3 0 0 27.46 178.44 0zm558.9 60.01l-78.2 0 -30.34 -121.62 -64.47 103.73c-8.5,13.41 -20.22,20.12 -35.12,20.12 -7.66,0 -15.11,-1.92 -22.32,-5.75 -7.24,-3.82 -12.67,-8.62 -16.29,-14.37l-64.8 -103.73 -30.01 121.62 -78.5 0 59.67 -204.28c2.36,-8.31 7.3,-15.28 14.86,-20.92 7.55,-5.64 16.22,-8.46 26,-8.46 15.11,0 28.2,8.95 39.26,26.81l70.22 114.61 70.54 -114.61c10.86,-17.86 23.84,-26.81 38.95,-26.81 9.99,0 18.73,2.82 26.17,8.46 7.45,5.64 12.44,12.61 15.01,20.92l59.37 204.28zm367.08 -117.79c0,33.63 -13.13,61.55 -39.41,83.79 -26.28,22.24 -59.42,33.35 -99.44,33.35l-69.27 0c-40.2,0 -73.45,-11.11 -99.73,-33.35 -26.28,-22.24 -39.43,-50.16 -39.43,-83.79 0,-33.62 13.05,-60.85 39.12,-81.72 26.04,-20.85 59.41,-31.26 100.04,-31.26l69.27 0c40.65,0 73.96,10.41 99.9,31.26 25.96,20.87 38.95,48.1 38.95,81.72zm-138.85 -53.29l-69.27 0c-19.77,0 -36.06,5.26 -48.83,15.78 -12.75,10.54 -19.15,24.01 -19.15,40.38 0,16.39 6.4,29.64 19.15,39.74 12.77,10.12 29.06,15.17 48.83,15.17l69.27 0c19.8,0 36.06,-5.05 48.83,-15.17 12.78,-10.1 19.15,-23.35 19.15,-39.74 0,-16.37 -6.42,-29.84 -19.29,-40.38 -12.88,-10.52 -29.1,-15.78 -48.69,-15.78zm440.5 140.76c0,20.85 -9.46,31.27 -28.4,31.27 -13.61,0 -26.62,-5.12 -38.95,-15.32l-134.7 -112.67 0 126.39 -71.49 0 0 -200.44c0,-8.52 2.71,-15.54 8.14,-21.08 5.41,-5.53 13.13,-8.29 23.12,-8.29 12.98,0 25.02,4.57 36.09,13.72l134.68 112.67 0 -126.7 71.51 0 0 200.45zm107.9 29.67l-71.18 0 0 -230.12 71.18 0 0 230.12zm295.56 -230.12l-46.27 59.69 -68.95 0 0 170.43 -71.5 0 0 -170.43 -94.81 0 45.98 -59.69 235.55 0zm311.23 112.98c0,33.63 -13.13,61.55 -39.41,83.79 -26.28,22.24 -59.42,33.35 -99.46,33.35l-69.27 0c-40.2,0 -73.45,-11.11 -99.73,-33.35 -26.28,-22.24 -39.43,-50.16 -39.43,-83.79 0,-33.62 13.05,-60.85 39.12,-81.72 26.04,-20.85 59.41,-31.26 100.04,-31.26l69.27 0c40.67,0 73.98,10.41 99.92,31.26 25.96,20.87 38.95,48.1 38.95,81.72zm-138.87 -53.29l-69.27 0c-19.77,0 -36.06,5.26 -48.83,15.78 -12.75,10.54 -19.15,24.01 -19.15,40.38 0,16.39 6.4,29.64 19.15,39.74 12.77,10.12 29.06,15.17 48.83,15.17l69.27 0c19.8,0 36.08,-5.05 48.86,-15.17 12.77,-10.1 19.14,-23.35 19.14,-39.74 0,-16.37 -6.42,-29.84 -19.29,-40.38 -12.88,-10.52 -29.12,-15.78 -48.71,-15.78zm500.85 170.43l-103.75 0 -69.58 -57.76 -98.31 0 0 57.76 -71.49 0 0 -117.45 198.54 0c12.12,0 22.11,-1.81 29.98,-5.43 10.01,-4.69 15,-11.59 15,-20.75 0,-17.88 -15,-26.8 -44.98,-26.8l-198.54 0 46.6 -59.69 145.22 0c35.96,0 65.13,6.79 87.47,20.43 25.1,15.52 37.66,37.66 37.66,66.38 0,16.18 -5.07,30.8 -15.17,43.89 -10.1,13.09 -24.09,23.14 -41.97,30.15l83.32 69.27zm119.04 0l43.1 -59.67 96.09 0 -59.69 -82.69 -103.76 142.36 -88.41 0 147.48 -204.6c4.67,-6.8 11.15,-12.75 19.46,-17.86 9.15,-5.54 17.99,-8.32 26.51,-8.32 8.73,0 17.55,2.78 26.49,8.32 7.87,4.88 14.26,10.85 19.15,17.86l143.95 204.6 -270.37 0zm697.75 0.65l-78.19 0 -30.34 -121.62 -64.47 103.73c-8.5,13.41 -20.22,20.12 -35.11,20.12 -7.66,0 -15.11,-1.92 -22.33,-5.75 -7.23,-3.82 -12.66,-8.62 -16.28,-14.37l-64.81 -103.73 -30 121.62 -78.5 0 59.67 -204.28c2.36,-8.31 7.3,-15.28 14.85,-20.92 7.56,-5.64 16.23,-8.46 26.01,-8.46 15.11,0 28.19,8.95 39.26,26.81l70.21 114.61 70.55 -114.61c10.86,-17.86 23.84,-26.81 38.95,-26.81 9.99,0 18.72,2.82 26.17,8.46 7.45,5.64 12.44,12.61 15,20.92l59.36 204.28zm264.96 -60.01l-45.97 59.36 -203.97 0 0 -230.12 249.94 0 -45.97 59.69 -132.45 0 0 24.24 167.25 0 -45.97 59.37 -121.28 0 0 27.46 178.42 0zm292.04 29.69c0,20.85 -9.46,31.27 -28.4,31.27 -13.61,0 -26.6,-5.12 -38.92,-15.32l-134.71 -112.67 0 126.39 -71.49 0 0 -200.44c0,-8.52 2.71,-15.54 8.14,-21.08 5.41,-5.53 13.13,-8.29 23.12,-8.29 12.99,0 25.02,4.57 36.09,13.72l134.68 112.67 0 -126.7 71.49 0 0 200.45zm294.95 -200.45l-46.27 59.69 -68.95 0 0 170.43 -71.51 0 0 -170.43 -94.81 0 45.97 -59.69 235.57 0zm311.21 112.98c0,33.63 -13.13,61.55 -39.41,83.79 -26.28,22.24 -59.42,33.35 -99.44,33.35l-69.26 0c-40.21,0 -73.45,-11.11 -99.73,-33.35 -26.28,-22.24 -39.43,-50.16 -39.43,-83.79 0,-33.62 13.04,-60.85 39.11,-81.72 26.05,-20.85 59.42,-31.26 100.05,-31.26l69.26 0c40.65,0 73.96,10.41 99.9,31.26 25.97,20.87 38.95,48.1 38.95,81.72zm-138.85 -53.29l-69.26 0c-19.78,0 -36.06,5.26 -48.84,15.78 -12.75,10.54 -19.14,24.01 -19.14,40.38 0,16.39 6.39,29.64 19.14,39.74 12.78,10.12 29.06,15.17 48.84,15.17l69.26 0c19.8,0 36.07,-5.05 48.84,-15.17 12.77,-10.1 19.15,-23.35 19.15,-39.74 0,-16.37 -6.42,-29.84 -19.3,-40.38 -12.87,-10.52 -29.1,-15.78 -48.69,-15.78z"/>
  </g>
 </g>
</svg>
