<svg width="24" height="24" viewBox="0 0 24 24" fill="none" xmlns="http://www.w3.org/2000/svg">
<path d="M12 22C17.5228 22 22 17.5228 22 12C22 6.47715 17.5228 2 12 2C6.47715 2 2 6.47715 2 12C2 17.5228 6.47715 22 12 22Z" stroke="url(#paint0_linear_4587_1526)" stroke-width="2" stroke-linecap="round" stroke-linejoin="round"/>
<path d="M14.3101 8L20.0501 17.94" stroke="url(#paint1_linear_4587_1526)" stroke-width="2" stroke-linecap="round" stroke-linejoin="round"/>
<path d="M9.68994 8H21.1699" stroke="url(#paint2_linear_4587_1526)" stroke-width="2" stroke-linecap="round" stroke-linejoin="round"/>
<path d="M7.38 12.0001L13.12 2.06006" stroke="url(#paint3_linear_4587_1526)" stroke-width="2" stroke-linecap="round" stroke-linejoin="round"/>
<path d="M9.68995 16.0001L3.94995 6.06006" stroke="url(#paint4_linear_4587_1526)" stroke-width="2" stroke-linecap="round" stroke-linejoin="round"/>
<path d="M14.31 16H2.82996" stroke="url(#paint5_linear_4587_1526)" stroke-width="2" stroke-linecap="round" stroke-linejoin="round"/>
<path d="M16.62 12L10.88 21.94" stroke="url(#paint6_linear_4587_1526)" stroke-width="2" stroke-linecap="round" stroke-linejoin="round"/>
<defs>
<linearGradient id="paint0_linear_4587_1526" x1="12" y1="2" x2="12" y2="22" gradientUnits="userSpaceOnUse">
<stop stop-color="#59EBFF"/>
<stop offset="1" stop-color="#009FE3"/>
</linearGradient>
<linearGradient id="paint1_linear_4587_1526" x1="17.1801" y1="8" x2="17.1801" y2="17.94" gradientUnits="userSpaceOnUse">
<stop stop-color="#59EBFF"/>
<stop offset="1" stop-color="#009FE3"/>
</linearGradient>
<linearGradient id="paint2_linear_4587_1526" x1="15.4299" y1="8" x2="15.4299" y2="9" gradientUnits="userSpaceOnUse">
<stop stop-color="#59EBFF"/>
<stop offset="1" stop-color="#009FE3"/>
</linearGradient>
<linearGradient id="paint3_linear_4587_1526" x1="10.25" y1="2.06006" x2="10.25" y2="12.0001" gradientUnits="userSpaceOnUse">
<stop stop-color="#59EBFF"/>
<stop offset="1" stop-color="#009FE3"/>
</linearGradient>
<linearGradient id="paint4_linear_4587_1526" x1="6.81995" y1="6.06006" x2="6.81995" y2="16.0001" gradientUnits="userSpaceOnUse">
<stop stop-color="#59EBFF"/>
<stop offset="1" stop-color="#009FE3"/>
</linearGradient>
<linearGradient id="paint5_linear_4587_1526" x1="8.56996" y1="16" x2="8.56996" y2="17" gradientUnits="userSpaceOnUse">
<stop stop-color="#59EBFF"/>
<stop offset="1" stop-color="#009FE3"/>
</linearGradient>
<linearGradient id="paint6_linear_4587_1526" x1="13.75" y1="12" x2="13.75" y2="21.94" gradientUnits="userSpaceOnUse">
<stop stop-color="#59EBFF"/>
<stop offset="1" stop-color="#009FE3"/>
</linearGradient>
</defs>
</svg>
