<svg width="24" height="24" viewBox="0 0 24 24" fill="none" xmlns="http://www.w3.org/2000/svg">
<path d="M12 22C17.5228 22 22 17.5228 22 12C22 6.47715 17.5228 2 12 2C6.47715 2 2 6.47715 2 12C2 17.5228 6.47715 22 12 22Z" stroke="url(#paint0_linear_4587_1570)" stroke-width="2" stroke-linecap="round" stroke-linejoin="round"/>
<path d="M12 16C14.2091 16 16 14.2091 16 12C16 9.79086 14.2091 8 12 8C9.79086 8 8 9.79086 8 12C8 14.2091 9.79086 16 12 16Z" stroke="url(#paint1_linear_4587_1570)" stroke-width="2" stroke-linecap="round" stroke-linejoin="round"/>
<path d="M21.17 8H12" stroke="url(#paint2_linear_4587_1570)" stroke-width="2" stroke-linecap="round" stroke-linejoin="round"/>
<path d="M3.94995 6.06006L8.53995 14.0001" stroke="url(#paint3_linear_4587_1570)" stroke-width="2" stroke-linecap="round" stroke-linejoin="round"/>
<path d="M10.88 21.94L15.46 14" stroke="url(#paint4_linear_4587_1570)" stroke-width="2" stroke-linecap="round" stroke-linejoin="round"/>
<defs>
<linearGradient id="paint0_linear_4587_1570" x1="12" y1="2" x2="12" y2="22" gradientUnits="userSpaceOnUse">
<stop stop-color="#59EBFF"/>
<stop offset="1" stop-color="#009FE3"/>
</linearGradient>
<linearGradient id="paint1_linear_4587_1570" x1="12" y1="8" x2="12" y2="16" gradientUnits="userSpaceOnUse">
<stop stop-color="#59EBFF"/>
<stop offset="1" stop-color="#009FE3"/>
</linearGradient>
<linearGradient id="paint2_linear_4587_1570" x1="16.585" y1="8" x2="16.585" y2="9" gradientUnits="userSpaceOnUse">
<stop stop-color="#59EBFF"/>
<stop offset="1" stop-color="#009FE3"/>
</linearGradient>
<linearGradient id="paint3_linear_4587_1570" x1="6.24495" y1="6.06006" x2="6.24495" y2="14.0001" gradientUnits="userSpaceOnUse">
<stop stop-color="#59EBFF"/>
<stop offset="1" stop-color="#009FE3"/>
</linearGradient>
<linearGradient id="paint4_linear_4587_1570" x1="13.17" y1="14" x2="13.17" y2="21.94" gradientUnits="userSpaceOnUse">
<stop stop-color="#59EBFF"/>
<stop offset="1" stop-color="#009FE3"/>
</linearGradient>
</defs>
</svg>
