<svg width="24" height="24" viewBox="0 0 24 24" fill="none" xmlns="http://www.w3.org/2000/svg">
<g clip-path="url(#clip0_4587_1577)">
<path d="M22.61 16.95C22.9322 16.1893 23.0609 15.3606 22.9845 14.5381C22.9082 13.7155 22.6293 12.9246 22.1726 12.2362C21.716 11.5478 21.0959 10.9832 20.3677 10.593C19.6396 10.2027 18.8261 9.99902 18 10H16.74C16.3318 8.39249 15.4341 6.95158 14.171 5.87666C12.908 4.80173 11.3421 4.14593 9.68999 4M4.99999 5C3.43807 5.86364 2.2098 7.22478 1.51058 8.86691C0.811359 10.509 0.681344 12.3378 1.14122 14.0623C1.60109 15.7869 2.62444 17.3081 4.04847 18.384C5.47251 19.4599 7.21543 20.0288 8.99999 20H18C18.5798 19.9993 19.155 19.8978 19.7 19.7" stroke="url(#paint0_linear_4587_1577)" stroke-width="2" stroke-linecap="round" stroke-linejoin="round"/>
<path d="M1 1L23 23" stroke="url(#paint1_linear_4587_1577)" stroke-width="2" stroke-linecap="round" stroke-linejoin="round"/>
</g>
<defs>
<linearGradient id="paint0_linear_4587_1577" x1="11.9385" y1="4" x2="11.9385" y2="20.001" gradientUnits="userSpaceOnUse">
<stop stop-color="#59EBFF"/>
<stop offset="1" stop-color="#009FE3"/>
</linearGradient>
<linearGradient id="paint1_linear_4587_1577" x1="12" y1="1" x2="12" y2="23" gradientUnits="userSpaceOnUse">
<stop stop-color="#59EBFF"/>
<stop offset="1" stop-color="#009FE3"/>
</linearGradient>
<clipPath id="clip0_4587_1577">
<rect width="24" height="24" fill="white"/>
</clipPath>
</defs>
</svg>
