<svg width="24" height="24" viewBox="0 0 24 24" fill="none" xmlns="http://www.w3.org/2000/svg">
<path d="M12 8C16.9706 8 21 6.65685 21 5C21 3.34315 16.9706 2 12 2C7.02944 2 3 3.34315 3 5C3 6.65685 7.02944 8 12 8Z" stroke="url(#paint0_linear_4587_1600)" stroke-width="2" stroke-linecap="round" stroke-linejoin="round"/>
<path d="M21 12C21 13.66 17 15 12 15C7 15 3 13.66 3 12" stroke="url(#paint1_linear_4587_1600)" stroke-width="2" stroke-linecap="round" stroke-linejoin="round"/>
<path d="M3 5V19C3 20.66 7 22 12 22C17 22 21 20.66 21 19V5" stroke="url(#paint2_linear_4587_1600)" stroke-width="2" stroke-linecap="round" stroke-linejoin="round"/>
<defs>
<linearGradient id="paint0_linear_4587_1600" x1="12" y1="2" x2="12" y2="8" gradientUnits="userSpaceOnUse">
<stop stop-color="#59EBFF"/>
<stop offset="1" stop-color="#009FE3"/>
</linearGradient>
<linearGradient id="paint1_linear_4587_1600" x1="12" y1="12" x2="12" y2="15" gradientUnits="userSpaceOnUse">
<stop stop-color="#59EBFF"/>
<stop offset="1" stop-color="#009FE3"/>
</linearGradient>
<linearGradient id="paint2_linear_4587_1600" x1="12" y1="5" x2="12" y2="22" gradientUnits="userSpaceOnUse">
<stop stop-color="#59EBFF"/>
<stop offset="1" stop-color="#009FE3"/>
</linearGradient>
</defs>
</svg>
