<svg width="24" height="24" viewBox="0 0 24 24" fill="none" xmlns="http://www.w3.org/2000/svg">
<path d="M12 22C17.5228 22 22 17.5228 22 12C22 6.47715 17.5228 2 12 2C6.47715 2 2 6.47715 2 12C2 17.5228 6.47715 22 12 22Z" stroke="url(#paint0_linear_4587_1602)" stroke-width="2" stroke-linecap="round" stroke-linejoin="round"/>
<path d="M12 15C13.6569 15 15 13.6569 15 12C15 10.3431 13.6569 9 12 9C10.3431 9 9 10.3431 9 12C9 13.6569 10.3431 15 12 15Z" stroke="url(#paint1_linear_4587_1602)" stroke-width="2" stroke-linecap="round" stroke-linejoin="round"/>
<defs>
<linearGradient id="paint0_linear_4587_1602" x1="12" y1="2" x2="12" y2="22" gradientUnits="userSpaceOnUse">
<stop stop-color="#59EBFF"/>
<stop offset="1" stop-color="#009FE3"/>
</linearGradient>
<linearGradient id="paint1_linear_4587_1602" x1="12" y1="9" x2="12" y2="15" gradientUnits="userSpaceOnUse">
<stop stop-color="#59EBFF"/>
<stop offset="1" stop-color="#009FE3"/>
</linearGradient>
</defs>
</svg>
