<svg width="24" height="24" viewBox="0 0 24 24" fill="none" xmlns="http://www.w3.org/2000/svg">
<path d="M18 13V19C18 19.5304 17.7893 20.0391 17.4142 20.4142C17.0391 20.7893 16.5304 21 16 21H5C4.46957 21 3.96086 20.7893 3.58579 20.4142C3.21071 20.0391 3 19.5304 3 19V8C3 7.46957 3.21071 6.96086 3.58579 6.58579C3.96086 6.21071 4.46957 6 5 6H11" stroke="url(#paint0_linear_4587_1614)" stroke-width="2" stroke-linecap="round" stroke-linejoin="round"/>
<path d="M15 3H21V9" stroke="url(#paint1_linear_4587_1614)" stroke-width="2" stroke-linecap="round" stroke-linejoin="round"/>
<path d="M10 14L21 3" stroke="url(#paint2_linear_4587_1614)" stroke-width="2" stroke-linecap="round" stroke-linejoin="round"/>
<defs>
<linearGradient id="paint0_linear_4587_1614" x1="10.5" y1="6" x2="10.5" y2="21" gradientUnits="userSpaceOnUse">
<stop stop-color="#59EBFF"/>
<stop offset="1" stop-color="#009FE3"/>
</linearGradient>
<linearGradient id="paint1_linear_4587_1614" x1="18" y1="3" x2="18" y2="9" gradientUnits="userSpaceOnUse">
<stop stop-color="#59EBFF"/>
<stop offset="1" stop-color="#009FE3"/>
</linearGradient>
<linearGradient id="paint2_linear_4587_1614" x1="15.5" y1="3" x2="15.5" y2="14" gradientUnits="userSpaceOnUse">
<stop stop-color="#59EBFF"/>
<stop offset="1" stop-color="#009FE3"/>
</linearGradient>
</defs>
</svg>
