<svg width="24" height="24" viewBox="0 0 24 24" fill="none" xmlns="http://www.w3.org/2000/svg">
<path d="M19.82 2H4.18C2.97602 2 2 2.97602 2 4.18V19.82C2 21.024 2.97602 22 4.18 22H19.82C21.024 22 22 21.024 22 19.82V4.18C22 2.97602 21.024 2 19.82 2Z" stroke="url(#paint0_linear_4587_1625)" stroke-width="2" stroke-linecap="round" stroke-linejoin="round"/>
<path d="M7 2V22" stroke="url(#paint1_linear_4587_1625)" stroke-width="2" stroke-linecap="round" stroke-linejoin="round"/>
<path d="M17 2V22" stroke="url(#paint2_linear_4587_1625)" stroke-width="2" stroke-linecap="round" stroke-linejoin="round"/>
<path d="M2 12H22" stroke="url(#paint3_linear_4587_1625)" stroke-width="2" stroke-linecap="round" stroke-linejoin="round"/>
<path d="M2 7H7" stroke="url(#paint4_linear_4587_1625)" stroke-width="2" stroke-linecap="round" stroke-linejoin="round"/>
<path d="M2 17H7" stroke="url(#paint5_linear_4587_1625)" stroke-width="2" stroke-linecap="round" stroke-linejoin="round"/>
<path d="M17 17H22" stroke="url(#paint6_linear_4587_1625)" stroke-width="2" stroke-linecap="round" stroke-linejoin="round"/>
<path d="M17 7H22" stroke="url(#paint7_linear_4587_1625)" stroke-width="2" stroke-linecap="round" stroke-linejoin="round"/>
<defs>
<linearGradient id="paint0_linear_4587_1625" x1="12" y1="2" x2="12" y2="22" gradientUnits="userSpaceOnUse">
<stop stop-color="#59EBFF"/>
<stop offset="1" stop-color="#009FE3"/>
</linearGradient>
<linearGradient id="paint1_linear_4587_1625" x1="7.5" y1="2" x2="7.5" y2="22" gradientUnits="userSpaceOnUse">
<stop stop-color="#59EBFF"/>
<stop offset="1" stop-color="#009FE3"/>
</linearGradient>
<linearGradient id="paint2_linear_4587_1625" x1="17.5" y1="2" x2="17.5" y2="22" gradientUnits="userSpaceOnUse">
<stop stop-color="#59EBFF"/>
<stop offset="1" stop-color="#009FE3"/>
</linearGradient>
<linearGradient id="paint3_linear_4587_1625" x1="12" y1="12" x2="12" y2="13" gradientUnits="userSpaceOnUse">
<stop stop-color="#59EBFF"/>
<stop offset="1" stop-color="#009FE3"/>
</linearGradient>
<linearGradient id="paint4_linear_4587_1625" x1="4.5" y1="7" x2="4.5" y2="8" gradientUnits="userSpaceOnUse">
<stop stop-color="#59EBFF"/>
<stop offset="1" stop-color="#009FE3"/>
</linearGradient>
<linearGradient id="paint5_linear_4587_1625" x1="4.5" y1="17" x2="4.5" y2="18" gradientUnits="userSpaceOnUse">
<stop stop-color="#59EBFF"/>
<stop offset="1" stop-color="#009FE3"/>
</linearGradient>
<linearGradient id="paint6_linear_4587_1625" x1="19.5" y1="17" x2="19.5" y2="18" gradientUnits="userSpaceOnUse">
<stop stop-color="#59EBFF"/>
<stop offset="1" stop-color="#009FE3"/>
</linearGradient>
<linearGradient id="paint7_linear_4587_1625" x1="19.5" y1="7" x2="19.5" y2="8" gradientUnits="userSpaceOnUse">
<stop stop-color="#59EBFF"/>
<stop offset="1" stop-color="#009FE3"/>
</linearGradient>
</defs>
</svg>
