<svg width="24" height="24" viewBox="0 0 24 24" fill="none" xmlns="http://www.w3.org/2000/svg">
<path d="M20 12V22H4V12" stroke="url(#paint0_linear_4587_1633)" stroke-width="2" stroke-linecap="round" stroke-linejoin="round"/>
<path d="M22 7H2V12H22V7Z" stroke="url(#paint1_linear_4587_1633)" stroke-width="2" stroke-linecap="round" stroke-linejoin="round"/>
<path d="M12 22V7" stroke="url(#paint2_linear_4587_1633)" stroke-width="2" stroke-linecap="round" stroke-linejoin="round"/>
<path d="M12 7H7.5C6.83696 7 6.20107 6.73661 5.73223 6.26777C5.26339 5.79893 5 5.16304 5 4.5C5 3.83696 5.26339 3.20107 5.73223 2.73223C6.20107 2.26339 6.83696 2 7.5 2C11 2 12 7 12 7Z" stroke="url(#paint3_linear_4587_1633)" stroke-width="2" stroke-linecap="round" stroke-linejoin="round"/>
<path d="M12 7H16.5C17.163 7 17.7989 6.73661 18.2678 6.26777C18.7366 5.79893 19 5.16304 19 4.5C19 3.83696 18.7366 3.20107 18.2678 2.73223C17.7989 2.26339 17.163 2 16.5 2C13 2 12 7 12 7Z" stroke="url(#paint4_linear_4587_1633)" stroke-width="2" stroke-linecap="round" stroke-linejoin="round"/>
<defs>
<linearGradient id="paint0_linear_4587_1633" x1="12" y1="12" x2="12" y2="22" gradientUnits="userSpaceOnUse">
<stop stop-color="#59EBFF"/>
<stop offset="1" stop-color="#009FE3"/>
</linearGradient>
<linearGradient id="paint1_linear_4587_1633" x1="12" y1="7" x2="12" y2="12" gradientUnits="userSpaceOnUse">
<stop stop-color="#59EBFF"/>
<stop offset="1" stop-color="#009FE3"/>
</linearGradient>
<linearGradient id="paint2_linear_4587_1633" x1="12.5" y1="7" x2="12.5" y2="22" gradientUnits="userSpaceOnUse">
<stop stop-color="#59EBFF"/>
<stop offset="1" stop-color="#009FE3"/>
</linearGradient>
<linearGradient id="paint3_linear_4587_1633" x1="8.5" y1="2" x2="8.5" y2="7" gradientUnits="userSpaceOnUse">
<stop stop-color="#59EBFF"/>
<stop offset="1" stop-color="#009FE3"/>
</linearGradient>
<linearGradient id="paint4_linear_4587_1633" x1="15.5" y1="2" x2="15.5" y2="7" gradientUnits="userSpaceOnUse">
<stop stop-color="#59EBFF"/>
<stop offset="1" stop-color="#009FE3"/>
</linearGradient>
</defs>
</svg>
