<svg width="24" height="24" viewBox="0 0 24 24" fill="none" xmlns="http://www.w3.org/2000/svg">
<g clip-path="url(#clip0_4587_1637)">
<path d="M22.65 14.39L12 22.13L1.35002 14.39C1.20725 14.285 1.10134 14.1375 1.04746 13.9687C0.993572 13.7998 0.99447 13.6183 1.05002 13.45L2.27002 9.66996L4.71002 2.15996C4.73369 2.09877 4.77136 2.04397 4.82002 1.99996C4.89926 1.92758 5.0027 1.88745 5.11002 1.88745C5.21734 1.88745 5.32078 1.92758 5.40002 1.99996C5.45141 2.04963 5.48927 2.11158 5.51002 2.17996L7.95002 9.66996H16.05L18.49 2.15996C18.5137 2.09877 18.5514 2.04397 18.6 1.99996C18.6793 1.92758 18.7827 1.88745 18.89 1.88745C18.9973 1.88745 19.1008 1.92758 19.18 1.99996C19.2314 2.04963 19.2693 2.11158 19.29 2.17996L21.73 9.68996L23 13.45C23.0505 13.6234 23.0438 13.8086 22.9807 13.9779C22.9177 14.1473 22.8017 14.2918 22.65 14.39V14.39Z" stroke="url(#paint0_linear_4587_1637)" stroke-width="2" stroke-linecap="round" stroke-linejoin="round"/>
</g>
<defs>
<linearGradient id="paint0_linear_4587_1637" x1="12.0206" y1="1.88745" x2="12.0206" y2="22.13" gradientUnits="userSpaceOnUse">
<stop stop-color="#59EBFF"/>
<stop offset="1" stop-color="#009FE3"/>
</linearGradient>
<clipPath id="clip0_4587_1637">
<rect width="24" height="24" fill="white"/>
</clipPath>
</defs>
</svg>
