<svg width="24" height="24" viewBox="0 0 24 24" fill="none" xmlns="http://www.w3.org/2000/svg">
<path d="M22 12H2" stroke="url(#paint0_linear_4587_1642)" stroke-width="2" stroke-linecap="round" stroke-linejoin="round"/>
<path d="M5.45 5.11L2 12V18C2 18.5304 2.21071 19.0391 2.58579 19.4142C2.96086 19.7893 3.46957 20 4 20H20C20.5304 20 21.0391 19.7893 21.4142 19.4142C21.7893 19.0391 22 18.5304 22 18V12L18.55 5.11C18.3844 4.77679 18.1292 4.49637 17.813 4.30028C17.4967 4.10419 17.1321 4.0002 16.76 4H7.24C6.86792 4.0002 6.50326 4.10419 6.18704 4.30028C5.87083 4.49637 5.61558 4.77679 5.45 5.11V5.11Z" stroke="url(#paint1_linear_4587_1642)" stroke-width="2" stroke-linecap="round" stroke-linejoin="round"/>
<path d="M6 16H6.01" stroke="url(#paint2_linear_4587_1642)" stroke-width="2" stroke-linecap="round" stroke-linejoin="round"/>
<path d="M10 16H10.01" stroke="url(#paint3_linear_4587_1642)" stroke-width="2" stroke-linecap="round" stroke-linejoin="round"/>
<defs>
<linearGradient id="paint0_linear_4587_1642" x1="12" y1="12" x2="12" y2="13" gradientUnits="userSpaceOnUse">
<stop stop-color="#59EBFF"/>
<stop offset="1" stop-color="#009FE3"/>
</linearGradient>
<linearGradient id="paint1_linear_4587_1642" x1="12" y1="4" x2="12" y2="20" gradientUnits="userSpaceOnUse">
<stop stop-color="#59EBFF"/>
<stop offset="1" stop-color="#009FE3"/>
</linearGradient>
<linearGradient id="paint2_linear_4587_1642" x1="6.005" y1="16" x2="6.005" y2="17" gradientUnits="userSpaceOnUse">
<stop stop-color="#59EBFF"/>
<stop offset="1" stop-color="#009FE3"/>
</linearGradient>
<linearGradient id="paint3_linear_4587_1642" x1="10.005" y1="16" x2="10.005" y2="17" gradientUnits="userSpaceOnUse">
<stop stop-color="#59EBFF"/>
<stop offset="1" stop-color="#009FE3"/>
</linearGradient>
</defs>
</svg>
