<svg width="24" height="24" viewBox="0 0 24 24" fill="none" xmlns="http://www.w3.org/2000/svg">
<path d="M12 22C17.5228 22 22 17.5228 22 12C22 6.47715 17.5228 2 12 2C6.47715 2 2 6.47715 2 12C2 17.5228 6.47715 22 12 22Z" stroke="url(#paint0_linear_4587_1646)" stroke-width="2" stroke-linecap="round" stroke-linejoin="round"/>
<path d="M9.08997 8.99996C9.32507 8.33163 9.78912 7.76807 10.3999 7.40909C11.0107 7.05012 11.7289 6.9189 12.4271 7.03867C13.1254 7.15844 13.7588 7.52148 14.215 8.06349C14.6713 8.60549 14.921 9.29148 14.92 9.99996C14.92 12 11.92 13 11.92 13" stroke="url(#paint1_linear_4587_1646)" stroke-width="2" stroke-linecap="round" stroke-linejoin="round"/>
<path d="M12 17H12.01" stroke="url(#paint2_linear_4587_1646)" stroke-width="2" stroke-linecap="round" stroke-linejoin="round"/>
<defs>
<linearGradient id="paint0_linear_4587_1646" x1="12" y1="2" x2="12" y2="22" gradientUnits="userSpaceOnUse">
<stop stop-color="#59EBFF"/>
<stop offset="1" stop-color="#009FE3"/>
</linearGradient>
<linearGradient id="paint1_linear_4587_1646" x1="12.005" y1="6.99548" x2="12.005" y2="13" gradientUnits="userSpaceOnUse">
<stop stop-color="#59EBFF"/>
<stop offset="1" stop-color="#009FE3"/>
</linearGradient>
<linearGradient id="paint2_linear_4587_1646" x1="12.005" y1="17" x2="12.005" y2="18" gradientUnits="userSpaceOnUse">
<stop stop-color="#59EBFF"/>
<stop offset="1" stop-color="#009FE3"/>
</linearGradient>
</defs>
</svg>
