<svg width="24" height="24" viewBox="0 0 24 24" fill="none" xmlns="http://www.w3.org/2000/svg">
<path d="M18.36 6.64001C19.6184 7.8988 20.4753 9.50246 20.8223 11.2482C21.1693 12.994 20.9909 14.8034 20.3096 16.4478C19.6284 18.0921 18.4748 19.4976 16.9948 20.4864C15.5148 21.4752 13.7749 22.0029 11.995 22.0029C10.2151 22.0029 8.47515 21.4752 6.99517 20.4864C5.51519 19.4976 4.36164 18.0921 3.68036 16.4478C2.99909 14.8034 2.82069 12.994 3.16772 11.2482C3.51475 9.50246 4.37162 7.8988 5.63 6.64001" stroke="url(#paint0_linear_4587_1712)" stroke-width="2" stroke-linecap="round" stroke-linejoin="round"/>
<path d="M12 2V12" stroke="url(#paint1_linear_4587_1712)" stroke-width="2" stroke-linecap="round" stroke-linejoin="round"/>
<defs>
<linearGradient id="paint0_linear_4587_1712" x1="11.995" y1="6.64001" x2="11.995" y2="22.0029" gradientUnits="userSpaceOnUse">
<stop stop-color="#59EBFF"/>
<stop offset="1" stop-color="#009FE3"/>
</linearGradient>
<linearGradient id="paint1_linear_4587_1712" x1="12.5" y1="2" x2="12.5" y2="12" gradientUnits="userSpaceOnUse">
<stop stop-color="#59EBFF"/>
<stop offset="1" stop-color="#009FE3"/>
</linearGradient>
</defs>
</svg>
