<svg width="24" height="24" viewBox="0 0 24 24" fill="none" xmlns="http://www.w3.org/2000/svg">
<path d="M1 4V10H7" stroke="url(#paint0_linear_4587_1719)" stroke-width="2" stroke-linecap="round" stroke-linejoin="round"/>
<path d="M3.51 14.9999C4.15839 16.8403 5.38734 18.4201 7.01166 19.5013C8.63598 20.5825 10.5677 21.1065 12.5157 20.9944C14.4637 20.8823 16.3226 20.1401 17.8121 18.8797C19.3017 17.6193 20.3413 15.9089 20.7742 14.0063C21.2072 12.1037 21.0101 10.1119 20.2126 8.33105C19.4152 6.55019 18.0605 5.07674 16.3528 4.13271C14.6451 3.18868 12.6769 2.82521 10.7447 3.09707C8.81245 3.36892 7.02091 4.26137 5.64 5.63995L1 9.99995" stroke="url(#paint1_linear_4587_1719)" stroke-width="2" stroke-linecap="round" stroke-linejoin="round"/>
<defs>
<linearGradient id="paint0_linear_4587_1719" x1="4" y1="4" x2="4" y2="10" gradientUnits="userSpaceOnUse">
<stop stop-color="#59EBFF"/>
<stop offset="1" stop-color="#009FE3"/>
</linearGradient>
<linearGradient id="paint1_linear_4587_1719" x1="10.9993" y1="3.00928" x2="10.9993" y2="21.0093" gradientUnits="userSpaceOnUse">
<stop stop-color="#59EBFF"/>
<stop offset="1" stop-color="#009FE3"/>
</linearGradient>
</defs>
</svg>
