<svg width="24" height="24" viewBox="0 0 24 24" fill="none" xmlns="http://www.w3.org/2000/svg">
<path d="M6 9C7.65685 9 9 7.65685 9 6C9 4.34315 7.65685 3 6 3C4.34315 3 3 4.34315 3 6C3 7.65685 4.34315 9 6 9Z" stroke="url(#paint0_linear_4587_1723)" stroke-width="2" stroke-linecap="round" stroke-linejoin="round"/>
<path d="M6 21C7.65685 21 9 19.6569 9 18C9 16.3431 7.65685 15 6 15C4.34315 15 3 16.3431 3 18C3 19.6569 4.34315 21 6 21Z" stroke="url(#paint1_linear_4587_1723)" stroke-width="2" stroke-linecap="round" stroke-linejoin="round"/>
<path d="M20 4L8.12 15.88" stroke="url(#paint2_linear_4587_1723)" stroke-width="2" stroke-linecap="round" stroke-linejoin="round"/>
<path d="M14.47 14.48L20 20" stroke="url(#paint3_linear_4587_1723)" stroke-width="2" stroke-linecap="round" stroke-linejoin="round"/>
<path d="M8.12 8.12L12 12" stroke="url(#paint4_linear_4587_1723)" stroke-width="2" stroke-linecap="round" stroke-linejoin="round"/>
<defs>
<linearGradient id="paint0_linear_4587_1723" x1="6" y1="3" x2="6" y2="9" gradientUnits="userSpaceOnUse">
<stop stop-color="#59EBFF"/>
<stop offset="1" stop-color="#009FE3"/>
</linearGradient>
<linearGradient id="paint1_linear_4587_1723" x1="6" y1="15" x2="6" y2="21" gradientUnits="userSpaceOnUse">
<stop stop-color="#59EBFF"/>
<stop offset="1" stop-color="#009FE3"/>
</linearGradient>
<linearGradient id="paint2_linear_4587_1723" x1="14.06" y1="4" x2="14.06" y2="15.88" gradientUnits="userSpaceOnUse">
<stop stop-color="#59EBFF"/>
<stop offset="1" stop-color="#009FE3"/>
</linearGradient>
<linearGradient id="paint3_linear_4587_1723" x1="17.235" y1="14.48" x2="17.235" y2="20" gradientUnits="userSpaceOnUse">
<stop stop-color="#59EBFF"/>
<stop offset="1" stop-color="#009FE3"/>
</linearGradient>
<linearGradient id="paint4_linear_4587_1723" x1="10.06" y1="8.12" x2="10.06" y2="12" gradientUnits="userSpaceOnUse">
<stop stop-color="#59EBFF"/>
<stop offset="1" stop-color="#009FE3"/>
</linearGradient>
</defs>
</svg>
