<svg width="24" height="24" viewBox="0 0 24 24" fill="none" xmlns="http://www.w3.org/2000/svg">
<path d="M20 2H4C2.89543 2 2 2.89543 2 4V8C2 9.10457 2.89543 10 4 10H20C21.1046 10 22 9.10457 22 8V4C22 2.89543 21.1046 2 20 2Z" stroke="url(#paint0_linear_4587_1726)" stroke-width="2" stroke-linecap="round" stroke-linejoin="round"/>
<path d="M20 14H4C2.89543 14 2 14.8954 2 16V20C2 21.1046 2.89543 22 4 22H20C21.1046 22 22 21.1046 22 20V16C22 14.8954 21.1046 14 20 14Z" stroke="url(#paint1_linear_4587_1726)" stroke-width="2" stroke-linecap="round" stroke-linejoin="round"/>
<path d="M6 6H6.01" stroke="url(#paint2_linear_4587_1726)" stroke-width="2" stroke-linecap="round" stroke-linejoin="round"/>
<path d="M6 18H6.01" stroke="url(#paint3_linear_4587_1726)" stroke-width="2" stroke-linecap="round" stroke-linejoin="round"/>
<defs>
<linearGradient id="paint0_linear_4587_1726" x1="12" y1="2" x2="12" y2="10" gradientUnits="userSpaceOnUse">
<stop stop-color="#59EBFF"/>
<stop offset="1" stop-color="#009FE3"/>
</linearGradient>
<linearGradient id="paint1_linear_4587_1726" x1="12" y1="14" x2="12" y2="22" gradientUnits="userSpaceOnUse">
<stop stop-color="#59EBFF"/>
<stop offset="1" stop-color="#009FE3"/>
</linearGradient>
<linearGradient id="paint2_linear_4587_1726" x1="6.005" y1="6" x2="6.005" y2="7" gradientUnits="userSpaceOnUse">
<stop stop-color="#59EBFF"/>
<stop offset="1" stop-color="#009FE3"/>
</linearGradient>
<linearGradient id="paint3_linear_4587_1726" x1="6.005" y1="18" x2="6.005" y2="19" gradientUnits="userSpaceOnUse">
<stop stop-color="#59EBFF"/>
<stop offset="1" stop-color="#009FE3"/>
</linearGradient>
</defs>
</svg>
