<svg width="24" height="24" viewBox="0 0 24 24" fill="none" xmlns="http://www.w3.org/2000/svg">
<path d="M17 18C17 16.6739 16.4732 15.4021 15.5355 14.4645C14.5979 13.5268 13.3261 13 12 13C10.6739 13 9.40215 13.5268 8.46447 14.4645C7.52678 15.4021 7 16.6739 7 18" stroke="url(#paint0_linear_4587_1749)" stroke-width="2" stroke-linecap="round" stroke-linejoin="round"/>
<path d="M12 9V2" stroke="url(#paint1_linear_4587_1749)" stroke-width="2" stroke-linecap="round" stroke-linejoin="round"/>
<path d="M4.21997 10.22L5.63997 11.64" stroke="url(#paint2_linear_4587_1749)" stroke-width="2" stroke-linecap="round" stroke-linejoin="round"/>
<path d="M1 18H3" stroke="url(#paint3_linear_4587_1749)" stroke-width="2" stroke-linecap="round" stroke-linejoin="round"/>
<path d="M21 18H23" stroke="url(#paint4_linear_4587_1749)" stroke-width="2" stroke-linecap="round" stroke-linejoin="round"/>
<path d="M18.36 11.64L19.78 10.22" stroke="url(#paint5_linear_4587_1749)" stroke-width="2" stroke-linecap="round" stroke-linejoin="round"/>
<path d="M23 22H1" stroke="url(#paint6_linear_4587_1749)" stroke-width="2" stroke-linecap="round" stroke-linejoin="round"/>
<path d="M16 5L12 9L8 5" stroke="url(#paint7_linear_4587_1749)" stroke-width="2" stroke-linecap="round" stroke-linejoin="round"/>
<defs>
<linearGradient id="paint0_linear_4587_1749" x1="12" y1="13" x2="12" y2="18" gradientUnits="userSpaceOnUse">
<stop stop-color="#59EBFF"/>
<stop offset="1" stop-color="#009FE3"/>
</linearGradient>
<linearGradient id="paint1_linear_4587_1749" x1="12.5" y1="2" x2="12.5" y2="9" gradientUnits="userSpaceOnUse">
<stop stop-color="#59EBFF"/>
<stop offset="1" stop-color="#009FE3"/>
</linearGradient>
<linearGradient id="paint2_linear_4587_1749" x1="4.92997" y1="10.22" x2="4.92997" y2="11.64" gradientUnits="userSpaceOnUse">
<stop stop-color="#59EBFF"/>
<stop offset="1" stop-color="#009FE3"/>
</linearGradient>
<linearGradient id="paint3_linear_4587_1749" x1="2" y1="18" x2="2" y2="19" gradientUnits="userSpaceOnUse">
<stop stop-color="#59EBFF"/>
<stop offset="1" stop-color="#009FE3"/>
</linearGradient>
<linearGradient id="paint4_linear_4587_1749" x1="22" y1="18" x2="22" y2="19" gradientUnits="userSpaceOnUse">
<stop stop-color="#59EBFF"/>
<stop offset="1" stop-color="#009FE3"/>
</linearGradient>
<linearGradient id="paint5_linear_4587_1749" x1="19.07" y1="10.22" x2="19.07" y2="11.64" gradientUnits="userSpaceOnUse">
<stop stop-color="#59EBFF"/>
<stop offset="1" stop-color="#009FE3"/>
</linearGradient>
<linearGradient id="paint6_linear_4587_1749" x1="12" y1="22" x2="12" y2="23" gradientUnits="userSpaceOnUse">
<stop stop-color="#59EBFF"/>
<stop offset="1" stop-color="#009FE3"/>
</linearGradient>
<linearGradient id="paint7_linear_4587_1749" x1="12" y1="5" x2="12" y2="9" gradientUnits="userSpaceOnUse">
<stop stop-color="#59EBFF"/>
<stop offset="1" stop-color="#009FE3"/>
</linearGradient>
</defs>
</svg>
