<svg width="24" height="24" viewBox="0 0 24 24" fill="none" xmlns="http://www.w3.org/2000/svg">
<path d="M20.59 13.41L13.42 20.58C13.2343 20.766 13.0137 20.9135 12.7709 21.0141C12.5281 21.1148 12.2678 21.1666 12.005 21.1666C11.7422 21.1666 11.4819 21.1148 11.2391 21.0141C10.9963 20.9135 10.7757 20.766 10.59 20.58L2 12V2H12L20.59 10.59C20.9625 10.9647 21.1716 11.4716 21.1716 12C21.1716 12.5284 20.9625 13.0353 20.59 13.41V13.41Z" stroke="url(#paint0_linear_4587_1752)" stroke-width="2" stroke-linecap="round" stroke-linejoin="round"/>
<path d="M7 7H7.01" stroke="url(#paint1_linear_4587_1752)" stroke-width="2" stroke-linecap="round" stroke-linejoin="round"/>
<defs>
<linearGradient id="paint0_linear_4587_1752" x1="11.5858" y1="2" x2="11.5858" y2="21.1666" gradientUnits="userSpaceOnUse">
<stop stop-color="#59EBFF"/>
<stop offset="1" stop-color="#009FE3"/>
</linearGradient>
<linearGradient id="paint1_linear_4587_1752" x1="7.005" y1="7" x2="7.005" y2="8" gradientUnits="userSpaceOnUse">
<stop stop-color="#59EBFF"/>
<stop offset="1" stop-color="#009FE3"/>
</linearGradient>
</defs>
</svg>
