<svg width="24" height="24" viewBox="0 0 24 24" fill="none" xmlns="http://www.w3.org/2000/svg">
<g clip-path="url(#clip0_4587_1776)">
<path d="M16 16L12 12L8 16" stroke="url(#paint0_linear_4587_1776)" stroke-width="2" stroke-linecap="round" stroke-linejoin="round"/>
<path d="M12 12V21" stroke="url(#paint1_linear_4587_1776)" stroke-width="2" stroke-linecap="round" stroke-linejoin="round"/>
<path d="M20.39 18.39C21.3653 17.8583 22.1358 17.0169 22.5798 15.9986C23.0239 14.9804 23.1162 13.8432 22.8422 12.7667C22.5682 11.6901 21.9434 10.7355 21.0666 10.0534C20.1898 9.37137 19.1108 9.00072 18 8.99998H16.74C16.4373 7.82923 15.8731 6.74232 15.0899 5.82098C14.3067 4.89964 13.3248 4.16783 12.2181 3.68059C11.1113 3.19335 9.90851 2.96334 8.70008 3.00787C7.49164 3.05239 6.30903 3.37028 5.24114 3.93765C4.17325 4.50501 3.24787 5.30709 2.53458 6.28357C1.82129 7.26004 1.33865 8.38552 1.12294 9.57538C0.90723 10.7652 0.964065 11.9885 1.28917 13.1532C1.61428 14.318 2.1992 15.3938 2.99996 16.3" stroke="url(#paint2_linear_4587_1776)" stroke-width="2" stroke-linecap="round" stroke-linejoin="round"/>
<path d="M16 16L12 12L8 16" stroke="url(#paint3_linear_4587_1776)" stroke-width="2" stroke-linecap="round" stroke-linejoin="round"/>
</g>
<defs>
<linearGradient id="paint0_linear_4587_1776" x1="12" y1="12" x2="12" y2="16" gradientUnits="userSpaceOnUse">
<stop stop-color="#59EBFF"/>
<stop offset="1" stop-color="#009FE3"/>
</linearGradient>
<linearGradient id="paint1_linear_4587_1776" x1="12.5" y1="12" x2="12.5" y2="21" gradientUnits="userSpaceOnUse">
<stop stop-color="#59EBFF"/>
<stop offset="1" stop-color="#009FE3"/>
</linearGradient>
<linearGradient id="paint2_linear_4587_1776" x1="11.9956" y1="3.00244" x2="11.9956" y2="18.39" gradientUnits="userSpaceOnUse">
<stop stop-color="#59EBFF"/>
<stop offset="1" stop-color="#009FE3"/>
</linearGradient>
<linearGradient id="paint3_linear_4587_1776" x1="12" y1="12" x2="12" y2="16" gradientUnits="userSpaceOnUse">
<stop stop-color="#59EBFF"/>
<stop offset="1" stop-color="#009FE3"/>
</linearGradient>
<clipPath id="clip0_4587_1776">
<rect width="24" height="24" fill="white"/>
</clipPath>
</defs>
</svg>
