<svg width="24" height="24" viewBox="0 0 24 24" fill="none" xmlns="http://www.w3.org/2000/svg">
<g clip-path="url(#clip0_4587_1792)">
<path d="M1 1L23 23" stroke="url(#paint0_linear_4587_1792)" stroke-width="2" stroke-linecap="round" stroke-linejoin="round"/>
<path d="M16.72 11.06C17.5391 11.4597 18.305 11.9603 19 12.55" stroke="url(#paint1_linear_4587_1792)" stroke-width="2" stroke-linecap="round" stroke-linejoin="round"/>
<path d="M5 12.55C6.48208 11.3108 8.26587 10.4862 10.17 10.16" stroke="url(#paint2_linear_4587_1792)" stroke-width="2" stroke-linecap="round" stroke-linejoin="round"/>
<path d="M10.71 5.04998C12.8524 4.87735 15.0076 5.13815 17.047 5.8168C19.0864 6.49546 20.9682 7.57806 22.58 8.99998" stroke="url(#paint3_linear_4587_1792)" stroke-width="2" stroke-linecap="round" stroke-linejoin="round"/>
<path d="M1.42004 9C2.80721 7.77385 4.39774 6.79922 6.12004 6.12" stroke="url(#paint4_linear_4587_1792)" stroke-width="2" stroke-linecap="round" stroke-linejoin="round"/>
<path d="M8.53003 16.11C9.54523 15.3888 10.7597 15.0013 12.005 15.0013C13.2504 15.0013 14.4648 15.3888 15.48 16.11" stroke="url(#paint5_linear_4587_1792)" stroke-width="2" stroke-linecap="round" stroke-linejoin="round"/>
<path d="M12 20H12.01" stroke="url(#paint6_linear_4587_1792)" stroke-width="2" stroke-linecap="round" stroke-linejoin="round"/>
</g>
<defs>
<linearGradient id="paint0_linear_4587_1792" x1="12" y1="1" x2="12" y2="23" gradientUnits="userSpaceOnUse">
<stop stop-color="#59EBFF"/>
<stop offset="1" stop-color="#009FE3"/>
</linearGradient>
<linearGradient id="paint1_linear_4587_1792" x1="17.86" y1="11.06" x2="17.86" y2="12.55" gradientUnits="userSpaceOnUse">
<stop stop-color="#59EBFF"/>
<stop offset="1" stop-color="#009FE3"/>
</linearGradient>
<linearGradient id="paint2_linear_4587_1792" x1="7.585" y1="10.16" x2="7.585" y2="12.55" gradientUnits="userSpaceOnUse">
<stop stop-color="#59EBFF"/>
<stop offset="1" stop-color="#009FE3"/>
</linearGradient>
<linearGradient id="paint3_linear_4587_1792" x1="16.645" y1="4.99829" x2="16.645" y2="8.99998" gradientUnits="userSpaceOnUse">
<stop stop-color="#59EBFF"/>
<stop offset="1" stop-color="#009FE3"/>
</linearGradient>
<linearGradient id="paint4_linear_4587_1792" x1="3.77004" y1="6.12" x2="3.77004" y2="9" gradientUnits="userSpaceOnUse">
<stop stop-color="#59EBFF"/>
<stop offset="1" stop-color="#009FE3"/>
</linearGradient>
<linearGradient id="paint5_linear_4587_1792" x1="12.005" y1="15.0013" x2="12.005" y2="16.11" gradientUnits="userSpaceOnUse">
<stop stop-color="#59EBFF"/>
<stop offset="1" stop-color="#009FE3"/>
</linearGradient>
<linearGradient id="paint6_linear_4587_1792" x1="12.005" y1="20" x2="12.005" y2="21" gradientUnits="userSpaceOnUse">
<stop stop-color="#59EBFF"/>
<stop offset="1" stop-color="#009FE3"/>
</linearGradient>
<clipPath id="clip0_4587_1792">
<rect width="24" height="24" fill="white"/>
</clipPath>
</defs>
</svg>
